<svg width="180" height="97" viewBox="0 0 180 97" fill="none" xmlns="http://www.w3.org/2000/svg">
<g id="Frame 24">
<rect width="180" height="97" rx="20" fill="#1A2272"/>
<path id="10+" d="M67.1932 25.9091V55H59.2955V33.1818H59.125L52.7614 36.9886V30.2841L59.9205 25.9091H67.1932ZM85.8366 55.7955C83.1946 55.786 80.9124 55.1752 78.9901 53.9631C77.0677 52.7509 75.5857 51.0038 74.544 48.7216C73.5024 46.4394 72.9863 43.7027 72.9957 40.5114C73.0052 37.3106 73.526 34.5928 74.5582 32.358C75.5999 30.1231 77.0772 28.4233 78.9901 27.2585C80.9124 26.0937 83.1946 25.5114 85.8366 25.5114C88.4787 25.5114 90.7609 26.0985 92.6832 27.2727C94.6056 28.4375 96.0876 30.1373 97.1293 32.3722C98.1709 34.607 98.687 37.3201 98.6776 40.5114C98.6776 43.7216 98.1567 46.4678 97.1151 48.75C96.0734 51.0322 94.5914 52.7794 92.669 53.9915C90.7562 55.1941 88.4787 55.7955 85.8366 55.7955ZM85.8366 49.375C87.2003 49.375 88.3177 48.6648 89.1889 47.2443C90.0696 45.8144 90.5052 43.5701 90.4957 40.5114C90.4957 38.5133 90.2969 36.8797 89.8991 35.6108C89.5014 34.3419 88.9522 33.4044 88.2514 32.7983C87.5507 32.1828 86.7457 31.875 85.8366 31.875C84.473 31.875 83.3603 32.5663 82.4986 33.9489C81.6368 35.3314 81.1965 37.5189 81.1776 40.5114C81.1681 42.5473 81.3622 44.2235 81.7599 45.5398C82.1577 46.8466 82.7069 47.8125 83.4077 48.4375C84.1179 49.0625 84.9276 49.375 85.8366 49.375ZM111.135 51.0227V30H117.499V51.0227H111.135ZM103.805 43.6932V37.3295H124.828V43.6932H103.805Z" fill="white"/>
<path id="&#208;&#187;&#208;&#181;&#209;&#130; &#209;&#131;&#209;&#129;&#208;&#191;&#208;&#181;&#209;&#136;&#208;&#189;&#208;&#190;&#208;&#185; &#209;&#128;&#208;&#176;&#208;&#177;&#208;&#190;&#209;&#130;&#209;&#139;" d="M15.3977 74V72.9062H15.6761C15.9048 72.9062 16.0954 72.8615 16.2479 72.772C16.4003 72.6792 16.523 72.5185 16.6158 72.2898C16.7119 72.0578 16.7848 71.7363 16.8345 71.3253C16.8875 70.911 16.9257 70.384 16.9489 69.7443L17.0881 66.3636H22.179V74H21.0057V67.4574H18.2017L18.0824 70.1818C18.0559 70.8082 17.9995 71.3601 17.9134 71.8374C17.8305 72.3113 17.7029 72.709 17.5305 73.0305C17.3615 73.352 17.1361 73.594 16.8544 73.7564C16.5727 73.9188 16.2197 74 15.7955 74H15.3977ZM27.5334 74.1591C26.7976 74.1591 26.1629 73.9967 25.6293 73.6719C25.099 73.3438 24.6896 72.8864 24.4013 72.2997C24.1162 71.7098 23.9737 71.0237 23.9737 70.2415C23.9737 69.4593 24.1162 68.7699 24.4013 68.1733C24.6896 67.5734 25.0907 67.1061 25.6044 66.7713C26.1214 66.4332 26.7247 66.2642 27.4141 66.2642C27.8118 66.2642 28.2045 66.3305 28.5923 66.4631C28.9801 66.5956 29.3331 66.8111 29.6513 67.1094C29.9695 67.4044 30.223 67.7955 30.4119 68.2827C30.6009 68.7699 30.6953 69.3698 30.6953 70.0824V70.5795H24.8089V69.5653H29.5021C29.5021 69.1345 29.416 68.75 29.2436 68.4119C29.0746 68.0739 28.8326 67.8071 28.5178 67.6115C28.2062 67.416 27.8383 67.3182 27.4141 67.3182C26.9467 67.3182 26.5424 67.4342 26.201 67.6662C25.8629 67.8949 25.6027 68.1932 25.4205 68.5611C25.2382 68.929 25.147 69.3234 25.147 69.7443V70.4205C25.147 70.9972 25.2464 71.486 25.4453 71.8871C25.6475 72.2848 25.9276 72.5881 26.2855 72.7969C26.6435 73.0024 27.0594 73.1051 27.5334 73.1051C27.8416 73.1051 28.12 73.062 28.3686 72.9759C28.6205 72.8864 28.8376 72.7538 29.0199 72.5781C29.2022 72.3991 29.343 72.1771 29.4425 71.9119L30.576 72.2301C30.4567 72.6146 30.2562 72.9527 29.9744 73.2443C29.6927 73.5327 29.3447 73.758 28.9304 73.9205C28.5161 74.0795 28.0504 74.1591 27.5334 74.1591ZM31.7692 67.4574V66.3636H37.9737V67.4574H35.468V74H34.2947V67.4574H31.7692ZM44.3784 76.8636C44.1795 76.8636 44.0022 76.8471 43.8464 76.8139C43.6906 76.7841 43.5829 76.7543 43.5233 76.7244L43.8216 75.6903C44.1066 75.7633 44.3585 75.7898 44.5772 75.7699C44.796 75.75 44.9899 75.6522 45.1589 75.4766C45.3313 75.3042 45.4887 75.0241 45.6312 74.6364L45.85 74.0398L43.0261 66.3636H44.2988L46.4068 72.4489H46.4863L48.5943 66.3636H49.867L46.6255 75.1136C46.4797 75.508 46.2991 75.8345 46.0836 76.093C45.8682 76.3549 45.618 76.5488 45.3329 76.6747C45.0512 76.8007 44.733 76.8636 44.3784 76.8636ZM54.2445 74.1591C53.5286 74.1591 52.9121 73.9901 52.3951 73.652C51.878 73.3139 51.4803 72.8482 51.2019 72.255C50.9235 71.6617 50.7843 70.9839 50.7843 70.2216C50.7843 69.446 50.9268 68.7616 51.2118 68.1683C51.5002 67.5717 51.9012 67.1061 52.415 66.7713C52.932 66.4332 53.5352 66.2642 54.2246 66.2642C54.7615 66.2642 55.2454 66.3636 55.6763 66.5625C56.1072 66.7614 56.4602 67.0398 56.7353 67.3977C57.0104 67.7557 57.181 68.1733 57.2473 68.6506H56.074C55.9846 68.3026 55.7857 67.9943 55.4775 67.7259C55.1725 67.4541 54.7615 67.3182 54.2445 67.3182C53.7871 67.3182 53.3861 67.4375 53.0414 67.6761C52.7 67.9115 52.4332 68.2446 52.2409 68.6754C52.052 69.103 51.9576 69.6051 51.9576 70.1818C51.9576 70.7718 52.0504 71.2855 52.236 71.723C52.4249 72.1605 52.69 72.5002 53.0314 72.7422C53.3761 72.9841 53.7805 73.1051 54.2445 73.1051C54.5494 73.1051 54.8262 73.0521 55.0748 72.946C55.3233 72.84 55.5338 72.6875 55.7061 72.4886C55.8785 72.2898 56.0011 72.0511 56.074 71.7727H57.2473C57.181 72.2235 57.017 72.6295 56.7551 72.9908C56.4966 73.3487 56.1536 73.6338 55.726 73.8459C55.3018 74.0547 54.8079 74.1591 54.2445 74.1591ZM58.9625 74V66.3636H64.9682V74H63.7949V67.4574H60.1358V74H58.9625ZM70.3127 74.1591C69.5769 74.1591 68.9422 73.9967 68.4086 73.6719C67.8783 73.3438 67.4689 72.8864 67.1806 72.2997C66.8955 71.7098 66.753 71.0237 66.753 70.2415C66.753 69.4593 66.8955 68.7699 67.1806 68.1733C67.4689 67.5734 67.87 67.1061 68.3837 66.7713C68.9007 66.4332 69.504 66.2642 70.1934 66.2642C70.5911 66.2642 70.9838 66.3305 71.3716 66.4631C71.7594 66.5956 72.1124 66.8111 72.4306 67.1094C72.7488 67.4044 73.0023 67.7955 73.1912 68.2827C73.3801 68.7699 73.4746 69.3698 73.4746 70.0824V70.5795H67.5882V69.5653H72.2814C72.2814 69.1345 72.1953 68.75 72.0229 68.4119C71.8539 68.0739 71.6119 67.8071 71.2971 67.6115C70.9855 67.416 70.6176 67.3182 70.1934 67.3182C69.726 67.3182 69.3217 67.4342 68.9803 67.6662C68.6422 67.8949 68.382 68.1932 68.1998 68.5611C68.0175 68.929 67.9263 69.3234 67.9263 69.7443V70.4205C67.9263 70.9972 68.0257 71.486 68.2246 71.8871C68.4268 72.2848 68.7069 72.5881 69.0648 72.7969C69.4228 73.0024 69.8387 73.1051 70.3127 73.1051C70.6209 73.1051 70.8993 73.062 71.1479 72.9759C71.3998 72.8864 71.6169 72.7538 71.7992 72.5781C71.9815 72.3991 72.1223 72.1771 72.2218 71.9119L73.3553 72.2301C73.236 72.6146 73.0355 72.9527 72.7537 73.2443C72.472 73.5327 72.124 73.758 71.7097 73.9205C71.2954 74.0795 70.8297 74.1591 70.3127 74.1591ZM75.2594 66.3636H76.4327V72.9062H79.3162V66.3636H80.4895V72.9062H83.373V66.3636H84.5463V74H75.2594V66.3636ZM91.7999 69.6449V70.7386H87.584V69.6449H91.7999ZM87.8624 66.3636V74H86.6891V66.3636H87.8624ZM92.6948 66.3636V74H91.5215V66.3636H92.6948ZM97.9398 74.1591C97.2504 74.1591 96.6455 73.995 96.1252 73.6669C95.6081 73.3388 95.2038 72.8797 94.9121 72.2898C94.6238 71.6998 94.4796 71.0104 94.4796 70.2216C94.4796 69.4261 94.6238 68.7318 94.9121 68.1385C95.2038 67.5452 95.6081 67.0845 96.1252 66.7564C96.6455 66.4283 97.2504 66.2642 97.9398 66.2642C98.6292 66.2642 99.2324 66.4283 99.7495 66.7564C100.27 67.0845 100.674 67.5452 100.963 68.1385C101.254 68.7318 101.4 69.4261 101.4 70.2216C101.4 71.0104 101.254 71.6998 100.963 72.2898C100.674 72.8797 100.27 73.3388 99.7495 73.6669C99.2324 73.995 98.6292 74.1591 97.9398 74.1591ZM97.9398 73.1051C98.4635 73.1051 98.8944 72.9709 99.2324 72.7024C99.5705 72.4339 99.8207 72.081 99.9831 71.6435C100.146 71.206 100.227 70.732 100.227 70.2216C100.227 69.7112 100.146 69.2356 99.9831 68.7947C99.8207 68.3539 99.5705 67.9976 99.2324 67.7259C98.8944 67.4541 98.4635 67.3182 97.9398 67.3182C97.4161 67.3182 96.9853 67.4541 96.6472 67.7259C96.3091 67.9976 96.0589 68.3539 95.8965 68.7947C95.7341 69.2356 95.6529 69.7112 95.6529 70.2216C95.6529 70.732 95.7341 71.206 95.8965 71.6435C96.0589 72.081 96.3091 72.4339 96.6472 72.7024C96.9853 72.9709 97.4161 73.1051 97.9398 73.1051ZM104.364 72.2699L108.043 66.3636H109.396V74H108.222V68.0938L104.563 74H103.191V66.3636H104.364V72.2699ZM107.268 63.8182H108.362C108.362 64.3551 108.176 64.7943 107.805 65.1357C107.433 65.477 106.93 65.6477 106.293 65.6477C105.667 65.6477 105.168 65.477 104.797 65.1357C104.429 64.7943 104.245 64.3551 104.245 63.8182H105.339C105.339 64.0767 105.41 64.3037 105.553 64.4993C105.698 64.6948 105.945 64.7926 106.293 64.7926C106.641 64.7926 106.89 64.6948 107.039 64.4993C107.192 64.3037 107.268 64.0767 107.268 63.8182ZM115.482 76.8636V66.3636H116.616V67.5767H116.755C116.841 67.4441 116.96 67.2751 117.113 67.0696C117.269 66.8608 117.491 66.6752 117.779 66.5128C118.071 66.3471 118.465 66.2642 118.962 66.2642C119.605 66.2642 120.172 66.425 120.662 66.7464C121.153 67.0679 121.536 67.5237 121.811 68.1136C122.086 68.7036 122.224 69.3996 122.224 70.2017C122.224 71.0104 122.086 71.7114 121.811 72.3047C121.536 72.8946 121.155 73.352 120.667 73.6768C120.18 73.9983 119.618 74.1591 118.982 74.1591C118.492 74.1591 118.099 74.0779 117.804 73.9155C117.509 73.7498 117.282 73.5625 117.123 73.3537C116.964 73.1416 116.841 72.9659 116.755 72.8267H116.655V76.8636H115.482ZM116.635 70.1818C116.635 70.7585 116.72 71.2673 116.889 71.7081C117.058 72.1456 117.305 72.4886 117.63 72.7372C117.955 72.9825 118.352 73.1051 118.823 73.1051C119.314 73.1051 119.723 72.9759 120.051 72.7173C120.382 72.4555 120.631 72.1042 120.797 71.6634C120.966 71.2192 121.05 70.7254 121.05 70.1818C121.05 69.6449 120.967 69.161 120.802 68.7301C120.639 68.2959 120.392 67.9529 120.061 67.701C119.733 67.4458 119.32 67.3182 118.823 67.3182C118.346 67.3182 117.945 67.4392 117.62 67.6811C117.295 67.9197 117.05 68.2545 116.884 68.6854C116.718 69.1129 116.635 69.6117 116.635 70.1818ZM126.26 74.179C125.777 74.179 125.337 74.0878 124.943 73.9055C124.549 73.7199 124.235 73.4531 124.003 73.1051C123.771 72.7538 123.655 72.3295 123.655 71.8324C123.655 71.3949 123.742 71.0402 123.914 70.7685C124.086 70.4934 124.317 70.2779 124.605 70.1222C124.893 69.9664 125.211 69.8504 125.559 69.7741C125.911 69.6946 126.264 69.6316 126.618 69.5852C127.082 69.5256 127.459 69.4808 127.747 69.451C128.039 69.4179 128.251 69.3632 128.383 69.2869C128.519 69.2107 128.587 69.0781 128.587 68.8892V68.8494C128.587 68.3589 128.453 67.9777 128.184 67.706C127.919 67.4342 127.517 67.2983 126.976 67.2983C126.416 67.2983 125.977 67.4209 125.659 67.6662C125.341 67.9115 125.117 68.1733 124.988 68.4517L123.874 68.054C124.073 67.59 124.338 67.2287 124.67 66.9702C125.004 66.7083 125.369 66.526 125.763 66.4233C126.161 66.3172 126.552 66.2642 126.937 66.2642C127.182 66.2642 127.464 66.294 127.782 66.3537C128.103 66.41 128.413 66.5277 128.711 66.7067C129.013 66.8857 129.263 67.1558 129.462 67.517C129.661 67.8783 129.76 68.3622 129.76 68.9688V74H128.587V72.9659H128.528C128.448 73.1316 128.315 73.3089 128.13 73.4979C127.944 73.6868 127.697 73.8475 127.389 73.9801C127.081 74.1127 126.705 74.179 126.26 74.179ZM126.439 73.125C126.903 73.125 127.295 73.0339 127.613 72.8516C127.934 72.6693 128.176 72.4339 128.339 72.1456C128.504 71.8572 128.587 71.554 128.587 71.2358V70.1619C128.537 70.2216 128.428 70.2763 128.259 70.326C128.093 70.3724 127.901 70.4138 127.682 70.4503C127.467 70.4834 127.256 70.5133 127.051 70.5398C126.849 70.563 126.685 70.5829 126.559 70.5994C126.254 70.6392 125.969 70.7038 125.704 70.7933C125.442 70.8795 125.23 71.0104 125.067 71.1861C124.908 71.3584 124.829 71.5937 124.829 71.892C124.829 72.2997 124.979 72.608 125.281 72.8168C125.586 73.0223 125.972 73.125 126.439 73.125ZM137.57 63.5L138.166 64.2159C137.934 64.4413 137.666 64.5987 137.361 64.6882C137.056 64.7777 136.711 64.8324 136.327 64.8523C135.942 64.8722 135.515 64.892 135.044 64.9119C134.514 64.9318 134.075 65.0611 133.727 65.2997C133.379 65.5384 133.11 65.883 132.921 66.3338C132.732 66.7846 132.611 67.3381 132.558 67.9943H132.658C132.916 67.517 133.274 67.1657 133.732 66.9403C134.189 66.715 134.679 66.6023 135.203 66.6023C135.8 66.6023 136.337 66.7415 136.814 67.0199C137.291 67.2983 137.669 67.7109 137.947 68.2578C138.226 68.8047 138.365 69.4792 138.365 70.2812C138.365 71.08 138.223 71.7694 137.938 72.3494C137.656 72.9295 137.26 73.3769 136.749 73.6918C136.242 74.0033 135.647 74.1591 134.964 74.1591C134.282 74.1591 133.683 73.9983 133.17 73.6768C132.656 73.352 132.257 72.8714 131.972 72.2351C131.687 71.5954 131.544 70.8049 131.544 69.8636V69.0483C131.544 67.348 131.832 66.0587 132.409 65.1804C132.989 64.3021 133.861 63.848 135.024 63.8182C135.435 63.8049 135.801 63.8016 136.123 63.8082C136.444 63.8149 136.724 63.8 136.963 63.7635C137.202 63.727 137.404 63.6392 137.57 63.5ZM134.964 73.1051C135.425 73.1051 135.821 72.9891 136.153 72.7571C136.487 72.5251 136.744 72.1986 136.923 71.7777C137.102 71.3535 137.192 70.8546 137.192 70.2812C137.192 69.7244 137.101 69.2505 136.918 68.8594C136.739 68.4683 136.482 68.17 136.148 67.9645C135.813 67.759 135.412 67.6562 134.945 67.6562C134.603 67.6562 134.297 67.7143 134.025 67.8303C133.753 67.9463 133.521 68.117 133.329 68.3423C133.137 68.5677 132.987 68.8428 132.881 69.1676C132.779 69.4924 132.724 69.8636 132.717 70.2812C132.717 71.1364 132.918 71.8208 133.319 72.3345C133.72 72.8482 134.268 73.1051 134.964 73.1051ZM143.262 74.1591C142.573 74.1591 141.968 73.995 141.447 73.6669C140.93 73.3388 140.526 72.8797 140.234 72.2898C139.946 71.6998 139.802 71.0104 139.802 70.2216C139.802 69.4261 139.946 68.7318 140.234 68.1385C140.526 67.5452 140.93 67.0845 141.447 66.7564C141.968 66.4283 142.573 66.2642 143.262 66.2642C143.951 66.2642 144.555 66.4283 145.072 66.7564C145.592 67.0845 145.996 67.5452 146.285 68.1385C146.576 68.7318 146.722 69.4261 146.722 70.2216C146.722 71.0104 146.576 71.6998 146.285 72.2898C145.996 72.8797 145.592 73.3388 145.072 73.6669C144.555 73.995 143.951 74.1591 143.262 74.1591ZM143.262 73.1051C143.786 73.1051 144.217 72.9709 144.555 72.7024C144.893 72.4339 145.143 72.081 145.305 71.6435C145.468 71.206 145.549 70.732 145.549 70.2216C145.549 69.7112 145.468 69.2356 145.305 68.7947C145.143 68.3539 144.893 67.9976 144.555 67.7259C144.217 67.4541 143.786 67.3182 143.262 67.3182C142.738 67.3182 142.308 67.4541 141.969 67.7259C141.631 67.9976 141.381 68.3539 141.219 68.7947C141.056 69.2356 140.975 69.7112 140.975 70.2216C140.975 70.732 141.056 71.206 141.219 71.6435C141.381 72.081 141.631 72.4339 141.969 72.7024C142.308 72.9709 142.738 73.1051 143.262 73.1051ZM147.515 67.4574V66.3636H153.72V67.4574H151.214V74H150.041V67.4574H147.515ZM156.445 69.1278H158.633C159.528 69.1278 160.212 69.3549 160.686 69.8089C161.16 70.263 161.397 70.8381 161.397 71.5341C161.397 71.9915 161.291 72.4074 161.079 72.782C160.867 73.1532 160.555 73.4498 160.144 73.6719C159.733 73.8906 159.23 74 158.633 74H155.431V66.3636H156.605V72.9062H158.633C159.097 72.9062 159.478 72.7836 159.776 72.5384C160.075 72.2931 160.224 71.9782 160.224 71.5938C160.224 71.1894 160.075 70.8596 159.776 70.6044C159.478 70.3492 159.097 70.2216 158.633 70.2216H156.445V69.1278ZM162.61 74V66.3636H163.784V74H162.61Z" fill="white"/>
</g>
</svg>
