<svg width="180" height="97" viewBox="0 0 180 97" fill="none" xmlns="http://www.w3.org/2000/svg">
<g id="Frame 26">
<rect width="180" height="97" rx="20" fill="#1A2272"/>
<path id="25" d="M65.4318 55V49.3182L76.2841 40.3409C77.0038 39.7443 77.6193 39.1856 78.1307 38.6648C78.6515 38.1345 79.0492 37.59 79.3239 37.0312C79.608 36.4725 79.75 35.8523 79.75 35.1705C79.75 34.4223 79.589 33.7831 79.267 33.2528C78.9545 32.7225 78.5189 32.3153 77.9602 32.0312C77.4015 31.7377 76.7576 31.5909 76.0284 31.5909C75.2992 31.5909 74.6553 31.7377 74.0966 32.0312C73.5473 32.3248 73.1212 32.7557 72.8182 33.3239C72.5152 33.892 72.3636 34.5833 72.3636 35.3977H64.8636C64.8636 33.3523 65.3229 31.5909 66.2415 30.1136C67.16 28.6364 68.4574 27.5 70.1335 26.7045C71.8097 25.9091 73.7746 25.5114 76.0284 25.5114C78.358 25.5114 80.375 25.8854 82.0795 26.6335C83.7936 27.3722 85.1146 28.4138 86.0426 29.7585C86.9801 31.1032 87.4489 32.6799 87.4489 34.4886C87.4489 35.6061 87.2169 36.7187 86.7528 37.8267C86.2888 38.9252 85.4555 40.142 84.2528 41.4773C83.0502 42.8125 81.3409 44.4034 79.125 46.25L76.3977 48.5227V48.6932H87.7614V55H65.4318ZM102.939 55.3977C100.704 55.3977 98.7202 55.0047 96.9872 54.2188C95.2637 53.4233 93.9048 52.3295 92.9105 50.9375C91.9257 49.5455 91.4238 47.9451 91.4048 46.1364H99.0753C99.1037 47.1402 99.492 47.9403 100.24 48.5369C100.998 49.1335 101.897 49.4318 102.939 49.4318C103.744 49.4318 104.454 49.2614 105.07 48.9205C105.685 48.5701 106.168 48.0777 106.518 47.4432C106.869 46.8087 107.039 46.0701 107.03 45.2273C107.039 44.375 106.869 43.6364 106.518 43.0114C106.168 42.3769 105.685 41.8892 105.07 41.5483C104.454 41.1979 103.744 41.0227 102.939 41.0227C102.106 41.0227 101.334 41.2263 100.624 41.6335C99.9228 42.0312 99.4067 42.5852 99.0753 43.2955L92.1435 41.9318L93.2798 25.9091H112.825V32.2159H99.7571L99.1889 38.6364H99.3594C99.8139 37.7557 100.6 37.0265 101.717 36.4489C102.835 35.8617 104.132 35.5682 105.609 35.5682C107.342 35.5682 108.886 35.9706 110.24 36.7756C111.604 37.5805 112.679 38.6932 113.464 40.1136C114.26 41.5246 114.653 43.1534 114.643 45C114.653 47.0265 114.17 48.8258 113.195 50.3977C112.229 51.9602 110.87 53.1866 109.118 54.0767C107.366 54.9574 105.306 55.3977 102.939 55.3977Z" fill="white"/>
<path id="&#209;&#129;&#208;&#190;&#209;&#130;&#209;&#128;&#209;&#131;&#208;&#180;&#208;&#189;&#208;&#184;&#208;&#186;&#208;&#190;&#208;&#178; &#208;&#178; &#209;&#136;&#209;&#130;&#208;&#176;&#209;&#130;&#208;&#181;" d="M22.1761 74.1591C21.4602 74.1591 20.8438 73.9901 20.3267 73.652C19.8097 73.3139 19.4119 72.8482 19.1335 72.255C18.8551 71.6617 18.7159 70.9839 18.7159 70.2216C18.7159 69.446 18.8584 68.7616 19.1435 68.1683C19.4318 67.5717 19.8329 67.1061 20.3466 66.7713C20.8636 66.4332 21.4669 66.2642 22.1562 66.2642C22.6932 66.2642 23.1771 66.3636 23.608 66.5625C24.0388 66.7614 24.3918 67.0398 24.6669 67.3977C24.942 67.7557 25.1127 68.1733 25.179 68.6506H24.0057C23.9162 68.3026 23.7173 67.9943 23.4091 67.7259C23.1042 67.4541 22.6932 67.3182 22.1761 67.3182C21.7188 67.3182 21.3177 67.4375 20.973 67.6761C20.6316 67.9115 20.3648 68.2446 20.1726 68.6754C19.9837 69.103 19.8892 69.6051 19.8892 70.1818C19.8892 70.7718 19.982 71.2855 20.1676 71.723C20.3565 72.1605 20.6217 72.5002 20.9631 72.7422C21.3078 72.9841 21.7121 73.1051 22.1761 73.1051C22.4811 73.1051 22.7578 73.0521 23.0064 72.946C23.255 72.84 23.4654 72.6875 23.6378 72.4886C23.8101 72.2898 23.9328 72.0511 24.0057 71.7727H25.179C25.1127 72.2235 24.9486 72.6295 24.6868 72.9908C24.4283 73.3487 24.0852 73.6338 23.6577 73.8459C23.2334 74.0547 22.7396 74.1591 22.1761 74.1591ZM29.9964 74.1591C29.3071 74.1591 28.7022 73.995 28.1818 73.6669C27.6648 73.3388 27.2604 72.8797 26.9688 72.2898C26.6804 71.6998 26.5362 71.0104 26.5362 70.2216C26.5362 69.4261 26.6804 68.7318 26.9688 68.1385C27.2604 67.5452 27.6648 67.0845 28.1818 66.7564C28.7022 66.4283 29.3071 66.2642 29.9964 66.2642C30.6858 66.2642 31.2891 66.4283 31.8061 66.7564C32.3265 67.0845 32.7308 67.5452 33.0192 68.1385C33.3108 68.7318 33.4567 69.4261 33.4567 70.2216C33.4567 71.0104 33.3108 71.6998 33.0192 72.2898C32.7308 72.8797 32.3265 73.3388 31.8061 73.6669C31.2891 73.995 30.6858 74.1591 29.9964 74.1591ZM29.9964 73.1051C30.5201 73.1051 30.951 72.9709 31.2891 72.7024C31.6271 72.4339 31.8774 72.081 32.0398 71.6435C32.2022 71.206 32.2834 70.732 32.2834 70.2216C32.2834 69.7112 32.2022 69.2356 32.0398 68.7947C31.8774 68.3539 31.6271 67.9976 31.2891 67.7259C30.951 67.4541 30.5201 67.3182 29.9964 67.3182C29.4728 67.3182 29.0419 67.4541 28.7038 67.7259C28.3658 67.9976 28.1155 68.3539 27.9531 68.7947C27.7907 69.2356 27.7095 69.7112 27.7095 70.2216C27.7095 70.732 27.7907 71.206 27.9531 71.6435C28.1155 72.081 28.3658 72.4339 28.7038 72.7024C29.0419 72.9709 29.4728 73.1051 29.9964 73.1051ZM34.2496 67.4574V66.3636H40.4542V67.4574H37.9485V74H36.7752V67.4574H34.2496ZM42.1657 76.8636V66.3636H43.2992V67.5767H43.4384C43.5246 67.4441 43.6439 67.2751 43.7963 67.0696C43.9521 66.8608 44.1742 66.6752 44.4625 66.5128C44.7542 66.3471 45.1486 66.2642 45.6458 66.2642C46.2888 66.2642 46.8555 66.425 47.3461 66.7464C47.8366 67.0679 48.2194 67.5237 48.4945 68.1136C48.7696 68.7036 48.9071 69.3996 48.9071 70.2017C48.9071 71.0104 48.7696 71.7114 48.4945 72.3047C48.2194 72.8946 47.8382 73.352 47.351 73.6768C46.8638 73.9983 46.302 74.1591 45.6657 74.1591C45.1751 74.1591 44.7824 74.0779 44.4874 73.9155C44.1924 73.7498 43.9654 73.5625 43.8063 73.3537C43.6472 73.1416 43.5246 72.9659 43.4384 72.8267H43.339V76.8636H42.1657ZM43.3191 70.1818C43.3191 70.7585 43.4036 71.2673 43.5726 71.7081C43.7417 72.1456 43.9886 72.4886 44.3134 72.7372C44.6382 72.9825 45.0359 73.1051 45.5066 73.1051C45.9971 73.1051 46.4064 72.9759 46.7346 72.7173C47.066 72.4555 47.3146 72.1042 47.4803 71.6634C47.6493 71.2192 47.7338 70.7254 47.7338 70.1818C47.7338 69.6449 47.651 69.161 47.4853 68.7301C47.3229 68.2959 47.0759 67.9529 46.7445 67.701C46.4164 67.4458 46.0037 67.3182 45.5066 67.3182C45.0293 67.3182 44.6283 67.4392 44.3034 67.6811C43.9786 67.9197 43.7334 68.2545 43.5676 68.6854C43.4019 69.1129 43.3191 69.6117 43.3191 70.1818ZM51.1792 76.8636C50.9803 76.8636 50.803 76.8471 50.6472 76.8139C50.4914 76.7841 50.3837 76.7543 50.324 76.7244L50.6223 75.6903C50.9074 75.7633 51.1593 75.7898 51.378 75.7699C51.5968 75.75 51.7907 75.6522 51.9597 75.4766C52.132 75.3042 52.2895 75.0241 52.432 74.6364L52.6507 74.0398L49.8269 66.3636H51.0996L53.2076 72.4489H53.2871L55.3951 66.3636H56.6678L53.4263 75.1136C53.2805 75.508 53.0998 75.8345 52.8844 76.093C52.669 76.3549 52.4187 76.5488 52.1337 76.6747C51.852 76.8007 51.5338 76.8636 51.1792 76.8636ZM56.7585 76.1875V72.9062H57.3949C57.5507 72.7438 57.6849 72.5682 57.7976 72.3793C57.9103 72.1903 58.008 71.9666 58.0909 71.7081C58.1771 71.4463 58.25 71.1281 58.3097 70.7536C58.3693 70.3757 58.4223 69.92 58.4688 69.3864L58.7273 66.3636H63.5795V72.9062H64.7528V76.1875H63.5795V74H57.9318V76.1875H56.7585ZM58.7273 72.9062H62.4062V67.4574H59.821L59.6222 69.3864C59.5393 70.1851 59.4366 70.8828 59.3139 71.4794C59.1913 72.076 58.9957 72.5516 58.7273 72.9062ZM71.421 69.6449V70.7386H67.2051V69.6449H71.421ZM67.4835 66.3636V74H66.3102V66.3636H67.4835ZM72.3159 66.3636V74H71.1426V66.3636H72.3159ZM75.6319 72.2699L79.3109 66.3636H80.6632V74H79.4899V68.0938L75.8308 74H74.4586V66.3636H75.6319V72.2699ZM82.8121 74V66.3636H83.9854V69.6847H84.761L87.5053 66.3636H89.0167L85.9343 70.0426L89.0565 74H87.5451L85.0394 70.7784H83.9854V74H82.8121ZM93.1195 74.1591C92.4301 74.1591 91.8252 73.995 91.3049 73.6669C90.7878 73.3388 90.3835 72.8797 90.0918 72.2898C89.8034 71.6998 89.6593 71.0104 89.6593 70.2216C89.6593 69.4261 89.8034 68.7318 90.0918 68.1385C90.3835 67.5452 90.7878 67.0845 91.3049 66.7564C91.8252 66.4283 92.4301 66.2642 93.1195 66.2642C93.8089 66.2642 94.4121 66.4283 94.9292 66.7564C95.4495 67.0845 95.8539 67.5452 96.1422 68.1385C96.4339 68.7318 96.5797 69.4261 96.5797 70.2216C96.5797 71.0104 96.4339 71.6998 96.1422 72.2898C95.8539 72.8797 95.4495 73.3388 94.9292 73.6669C94.4121 73.995 93.8089 74.1591 93.1195 74.1591ZM93.1195 73.1051C93.6432 73.1051 94.074 72.9709 94.4121 72.7024C94.7502 72.4339 95.0004 72.081 95.1628 71.6435C95.3252 71.206 95.4064 70.732 95.4064 70.2216C95.4064 69.7112 95.3252 69.2356 95.1628 68.7947C95.0004 68.3539 94.7502 67.9976 94.4121 67.7259C94.074 67.4541 93.6432 67.3182 93.1195 67.3182C92.5958 67.3182 92.165 67.4541 91.8269 67.7259C91.4888 67.9976 91.2386 68.3539 91.0762 68.7947C90.9138 69.2356 90.8326 69.7112 90.8326 70.2216C90.8326 70.732 90.9138 71.206 91.0762 71.6435C91.2386 72.081 91.4888 72.4339 91.8269 72.7024C92.165 72.9709 92.5958 73.1051 93.1195 73.1051ZM98.3707 74V66.3636H101.493C102.315 66.3636 102.968 66.5492 103.452 66.9205C103.936 67.2917 104.178 67.7822 104.178 68.392C104.178 68.8561 104.04 69.2157 103.765 69.4709C103.49 69.7228 103.137 69.8935 102.706 69.983C102.988 70.0227 103.261 70.1222 103.526 70.2812C103.795 70.4403 104.017 70.6591 104.192 70.9375C104.368 71.2126 104.456 71.5507 104.456 71.9517C104.456 72.3428 104.357 72.6925 104.158 73.0007C103.959 73.3089 103.674 73.5526 103.303 73.7315C102.931 73.9105 102.487 74 101.97 74H98.3707ZM99.4844 72.9261H101.97C102.375 72.9261 102.691 72.83 102.92 72.6378C103.148 72.4455 103.263 72.1837 103.263 71.8523C103.263 71.4579 103.148 71.148 102.92 70.9226C102.691 70.6939 102.375 70.5795 101.97 70.5795H99.4844V72.9261ZM99.4844 69.5653H101.493C101.808 69.5653 102.078 69.5223 102.303 69.4361C102.529 69.3466 102.701 69.2206 102.82 69.0582C102.943 68.8925 103.004 68.697 103.004 68.4716C103.004 68.1501 102.87 67.8982 102.602 67.7159C102.333 67.5303 101.964 67.4375 101.493 67.4375H99.4844V69.5653ZM110.17 74V66.3636H113.292C114.114 66.3636 114.767 66.5492 115.251 66.9205C115.734 67.2917 115.976 67.7822 115.976 68.392C115.976 68.8561 115.839 69.2157 115.564 69.4709C115.289 69.7228 114.936 69.8935 114.505 69.983C114.787 70.0227 115.06 70.1222 115.325 70.2812C115.594 70.4403 115.816 70.6591 115.991 70.9375C116.167 71.2126 116.255 71.5507 116.255 71.9517C116.255 72.3428 116.155 72.6925 115.956 73.0007C115.758 73.3089 115.473 73.5526 115.101 73.7315C114.73 73.9105 114.286 74 113.769 74H110.17ZM111.283 72.9261H113.769C114.173 72.9261 114.49 72.83 114.719 72.6378C114.947 72.4455 115.062 72.1837 115.062 71.8523C115.062 71.4579 114.947 71.148 114.719 70.9226C114.49 70.6939 114.173 70.5795 113.769 70.5795H111.283V72.9261ZM111.283 69.5653H113.292C113.607 69.5653 113.877 69.5223 114.102 69.4361C114.327 69.3466 114.5 69.2206 114.619 69.0582C114.742 68.8925 114.803 68.697 114.803 68.4716C114.803 68.1501 114.669 67.8982 114.4 67.7159C114.132 67.5303 113.762 67.4375 113.292 67.4375H111.283V69.5653ZM121.968 66.3636H123.142V72.9062H126.025V66.3636H127.199V72.9062H130.082V66.3636H131.255V74H121.968V66.3636ZM132.359 67.4574V66.3636H138.564V67.4574H136.058V74H134.885V67.4574H132.359ZM142.126 74.179C141.642 74.179 141.203 74.0878 140.808 73.9055C140.414 73.7199 140.101 73.4531 139.869 73.1051C139.637 72.7538 139.521 72.3295 139.521 71.8324C139.521 71.3949 139.607 71.0402 139.779 70.7685C139.951 70.4934 140.182 70.2779 140.47 70.1222C140.759 69.9664 141.077 69.8504 141.425 69.7741C141.776 69.6946 142.129 69.6316 142.484 69.5852C142.948 69.5256 143.324 69.4808 143.612 69.451C143.904 69.4179 144.116 69.3632 144.249 69.2869C144.384 69.2107 144.452 69.0781 144.452 68.8892V68.8494C144.452 68.3589 144.318 67.9777 144.05 67.706C143.785 67.4342 143.382 67.2983 142.842 67.2983C142.281 67.2983 141.842 67.4209 141.524 67.6662C141.206 67.9115 140.982 68.1733 140.853 68.4517L139.739 68.054C139.938 67.59 140.203 67.2287 140.535 66.9702C140.87 66.7083 141.234 66.526 141.629 66.4233C142.026 66.3172 142.417 66.2642 142.802 66.2642C143.047 66.2642 143.329 66.294 143.647 66.3537C143.969 66.41 144.278 66.5277 144.577 66.7067C144.878 66.8857 145.129 67.1558 145.327 67.517C145.526 67.8783 145.626 68.3622 145.626 68.9688V74H144.452V72.9659H144.393C144.313 73.1316 144.181 73.3089 143.995 73.4979C143.809 73.6868 143.563 73.8475 143.254 73.9801C142.946 74.1127 142.57 74.179 142.126 74.179ZM142.305 73.125C142.769 73.125 143.16 73.0339 143.478 72.8516C143.799 72.6693 144.041 72.4339 144.204 72.1456C144.37 71.8572 144.452 71.554 144.452 71.2358V70.1619C144.403 70.2216 144.293 70.2763 144.124 70.326C143.959 70.3724 143.766 70.4138 143.548 70.4503C143.332 70.4834 143.122 70.5133 142.916 70.5398C142.714 70.563 142.55 70.5829 142.424 70.5994C142.119 70.6392 141.834 70.7038 141.569 70.7933C141.307 70.8795 141.095 71.0104 140.933 71.1861C140.773 71.3584 140.694 71.5937 140.694 71.892C140.694 72.2997 140.845 72.608 141.146 72.8168C141.451 73.0223 141.837 73.125 142.305 73.125ZM146.728 67.4574V66.3636H152.933V67.4574H150.427V74H149.254V67.4574H146.728ZM157.449 74.1591C156.714 74.1591 156.079 73.9967 155.545 73.6719C155.015 73.3438 154.606 72.8864 154.317 72.2997C154.032 71.7098 153.89 71.0237 153.89 70.2415C153.89 69.4593 154.032 68.7699 154.317 68.1733C154.606 67.5734 155.007 67.1061 155.52 66.7713C156.037 66.4332 156.641 66.2642 157.33 66.2642C157.728 66.2642 158.121 66.3305 158.508 66.4631C158.896 66.5956 159.249 66.8111 159.567 67.1094C159.885 67.4044 160.139 67.7955 160.328 68.2827C160.517 68.7699 160.611 69.3698 160.611 70.0824V70.5795H154.725V69.5653H159.418C159.418 69.1345 159.332 68.75 159.16 68.4119C158.991 68.0739 158.749 67.8071 158.434 67.6115C158.122 67.416 157.754 67.3182 157.33 67.3182C156.863 67.3182 156.458 67.4342 156.117 67.6662C155.779 67.8949 155.519 68.1932 155.336 68.5611C155.154 68.929 155.063 69.3234 155.063 69.7443V70.4205C155.063 70.9972 155.162 71.486 155.361 71.8871C155.564 72.2848 155.844 72.5881 156.202 72.7969C156.559 73.0024 156.975 73.1051 157.449 73.1051C157.758 73.1051 158.036 73.062 158.285 72.9759C158.537 72.8864 158.754 72.7538 158.936 72.5781C159.118 72.3991 159.259 72.1771 159.358 71.9119L160.492 72.2301C160.373 72.6146 160.172 72.9527 159.89 73.2443C159.609 73.5327 159.261 73.758 158.846 73.9205C158.432 74.0795 157.966 74.1591 157.449 74.1591Z" fill="white"/>
</g>
</svg>
