<svg width="180" height="97" viewBox="0 0 180 97" fill="none" xmlns="http://www.w3.org/2000/svg">
<g id="Frame 25">
<rect width="180" height="97" rx="20" fill="#1A2272"/>
<path id="&#62;1500" d="M47.4318 43.8636L26.2955 52.3295V45.1705L39.7614 40.5114L39.5341 40.8523V40.0568L39.7614 40.3977L26.2955 35.7386V28.5795L47.4318 37.0455V43.8636ZM66.9276 25.9091V55H59.0298V33.1818H58.8594L52.4957 36.9886V30.2841L59.6548 25.9091H66.9276ZM84.5483 55.3977C82.3134 55.3977 80.3295 55.0047 78.5966 54.2188C76.8731 53.4233 75.5142 52.3295 74.5199 50.9375C73.535 49.5455 73.0331 47.9451 73.0142 46.1364H80.6847C80.7131 47.1402 81.1013 47.9403 81.8494 48.5369C82.607 49.1335 83.5066 49.4318 84.5483 49.4318C85.3532 49.4318 86.0634 49.2614 86.679 48.9205C87.2945 48.5701 87.7775 48.0777 88.1278 47.4432C88.4782 46.8087 88.6487 46.0701 88.6392 45.2273C88.6487 44.375 88.4782 43.6364 88.1278 43.0114C87.7775 42.3769 87.2945 41.8892 86.679 41.5483C86.0634 41.1979 85.3532 41.0227 84.5483 41.0227C83.715 41.0227 82.9432 41.2263 82.233 41.6335C81.5322 42.0312 81.0161 42.5852 80.6847 43.2955L73.7528 41.9318L74.8892 25.9091H94.4347V32.2159H81.3665L80.7983 38.6364H80.9688C81.4233 37.7557 82.2093 37.0265 83.3267 36.4489C84.4441 35.8617 85.7415 35.5682 87.2188 35.5682C88.9517 35.5682 90.4953 35.9706 91.8494 36.7756C93.2131 37.5805 94.2879 38.6932 95.0739 40.1136C95.8693 41.5246 96.2623 43.1534 96.2528 45C96.2623 47.0265 95.7794 48.8258 94.804 50.3977C93.8381 51.9602 92.4792 53.1866 90.7273 54.0767C88.9754 54.9574 86.9157 55.3977 84.5483 55.3977ZM112.329 55.7955C109.687 55.786 107.405 55.1752 105.482 53.9631C103.56 52.7509 102.078 51.0038 101.036 48.7216C99.9946 46.4394 99.4785 43.7027 99.4879 40.5114C99.4974 37.3106 100.018 34.5928 101.05 32.358C102.092 30.1231 103.569 28.4233 105.482 27.2585C107.405 26.0937 109.687 25.5114 112.329 25.5114C114.971 25.5114 117.253 26.0985 119.175 27.2727C121.098 28.4375 122.58 30.1373 123.621 32.3722C124.663 34.607 125.179 37.3201 125.17 40.5114C125.17 43.7216 124.649 46.4678 123.607 48.75C122.566 51.0322 121.084 52.7794 119.161 53.9915C117.248 55.1941 114.971 55.7955 112.329 55.7955ZM112.329 49.375C113.692 49.375 114.81 48.6648 115.681 47.2443C116.562 45.8144 116.997 43.5701 116.988 40.5114C116.988 38.5133 116.789 36.8797 116.391 35.6108C115.994 34.3419 115.444 33.4044 114.744 32.7983C114.043 32.1828 113.238 31.875 112.329 31.875C110.965 31.875 109.853 32.5663 108.991 33.9489C108.129 35.3314 107.689 37.5189 107.67 40.5114C107.66 42.5473 107.854 44.2235 108.252 45.5398C108.65 46.8466 109.199 47.8125 109.9 48.4375C110.61 49.0625 111.42 49.375 112.329 49.375ZM141.548 55.7955C138.906 55.786 136.623 55.1752 134.701 53.9631C132.779 52.7509 131.297 51.0038 130.255 48.7216C129.213 46.4394 128.697 43.7027 128.707 40.5114C128.716 37.3106 129.237 34.5928 130.269 32.358C131.311 30.1231 132.788 28.4233 134.701 27.2585C136.623 26.0937 138.906 25.5114 141.548 25.5114C144.19 25.5114 146.472 26.0985 148.394 27.2727C150.317 28.4375 151.799 30.1373 152.84 32.3722C153.882 34.607 154.398 37.3201 154.388 40.5114C154.388 43.7216 153.868 46.4678 152.826 48.75C151.784 51.0322 150.302 52.7794 148.38 53.9915C146.467 55.1941 144.19 55.7955 141.548 55.7955ZM141.548 49.375C142.911 49.375 144.029 48.6648 144.9 47.2443C145.781 45.8144 146.216 43.5701 146.207 40.5114C146.207 38.5133 146.008 36.8797 145.61 35.6108C145.212 34.3419 144.663 33.4044 143.962 32.7983C143.262 32.1828 142.457 31.875 141.548 31.875C140.184 31.875 139.071 32.5663 138.21 33.9489C137.348 35.3314 136.907 37.5189 136.888 40.5114C136.879 42.5473 137.073 44.2235 137.471 45.5398C137.869 46.8466 138.418 47.8125 139.119 48.4375C139.829 49.0625 140.638 49.375 141.548 49.375Z" fill="white"/>
<path id="&#208;&#180;&#208;&#190;&#208;&#178;&#208;&#190;&#208;&#187;&#209;&#140;&#208;&#189;&#209;&#139;&#209;&#133; &#208;&#186;&#208;&#187;&#208;&#184;&#208;&#181;&#208;&#189;&#209;&#130;&#208;&#190;&#208;&#178;" d="M18.7585 76.1875V72.9062H19.3949C19.5507 72.7438 19.6849 72.5682 19.7976 72.3793C19.9103 72.1903 20.008 71.9666 20.0909 71.7081C20.1771 71.4463 20.25 71.1281 20.3097 70.7536C20.3693 70.3757 20.4223 69.92 20.4688 69.3864L20.7273 66.3636H25.5795V72.9062H26.7528V76.1875H25.5795V74H19.9318V76.1875H18.7585ZM20.7273 72.9062H24.4062V67.4574H21.821L21.6222 69.3864C21.5393 70.1851 21.4366 70.8828 21.3139 71.4794C21.1913 72.076 20.9957 72.5516 20.7273 72.9062ZM31.4125 74.1591C30.7231 74.1591 30.1182 73.995 29.5978 73.6669C29.0808 73.3388 28.6764 72.8797 28.3848 72.2898C28.0964 71.6998 27.9522 71.0104 27.9522 70.2216C27.9522 69.4261 28.0964 68.7318 28.3848 68.1385C28.6764 67.5452 29.0808 67.0845 29.5978 66.7564C30.1182 66.4283 30.7231 66.2642 31.4125 66.2642C32.1019 66.2642 32.7051 66.4283 33.2221 66.7564C33.7425 67.0845 34.1468 67.5452 34.4352 68.1385C34.7269 68.7318 34.8727 69.4261 34.8727 70.2216C34.8727 71.0104 34.7269 71.6998 34.4352 72.2898C34.1468 72.8797 33.7425 73.3388 33.2221 73.6669C32.7051 73.995 32.1019 74.1591 31.4125 74.1591ZM31.4125 73.1051C31.9361 73.1051 32.367 72.9709 32.7051 72.7024C33.0431 72.4339 33.2934 72.081 33.4558 71.6435C33.6182 71.206 33.6994 70.732 33.6994 70.2216C33.6994 69.7112 33.6182 69.2356 33.4558 68.7947C33.2934 68.3539 33.0431 67.9976 32.7051 67.7259C32.367 67.4541 31.9361 67.3182 31.4125 67.3182C30.8888 67.3182 30.4579 67.4541 30.1199 67.7259C29.7818 67.9976 29.5315 68.3539 29.3691 68.7947C29.2067 69.2356 29.1255 69.7112 29.1255 70.2216C29.1255 70.732 29.2067 71.206 29.3691 71.6435C29.5315 72.081 29.7818 72.4339 30.1199 72.7024C30.4579 72.9709 30.8888 73.1051 31.4125 73.1051ZM36.6637 74V66.3636H39.7859C40.6078 66.3636 41.2608 66.5492 41.7447 66.9205C42.2286 67.2917 42.4705 67.7822 42.4705 68.392C42.4705 68.8561 42.333 69.2157 42.0579 69.4709C41.7828 69.7228 41.4298 69.8935 40.9989 69.983C41.2807 70.0227 41.5541 70.1222 41.8192 70.2812C42.0877 70.4403 42.3098 70.6591 42.4854 70.9375C42.6611 71.2126 42.7489 71.5507 42.7489 71.9517C42.7489 72.3428 42.6495 72.6925 42.4506 73.0007C42.2518 73.3089 41.9667 73.5526 41.5955 73.7315C41.2243 73.9105 40.7802 74 40.2631 74H36.6637ZM37.7773 72.9261H40.2631C40.6675 72.9261 40.984 72.83 41.2127 72.6378C41.4414 72.4455 41.5558 72.1837 41.5558 71.8523C41.5558 71.4579 41.4414 71.148 41.2127 70.9226C40.984 70.6939 40.6675 70.5795 40.2631 70.5795H37.7773V72.9261ZM37.7773 69.5653H39.7859C40.1007 69.5653 40.3709 69.5223 40.5962 69.4361C40.8216 69.3466 40.994 69.2206 41.1133 69.0582C41.2359 68.8925 41.2972 68.697 41.2972 68.4716C41.2972 68.1501 41.163 67.8982 40.8945 67.7159C40.6261 67.5303 40.2565 67.4375 39.7859 67.4375H37.7773V69.5653ZM47.6273 74.1591C46.9379 74.1591 46.333 73.995 45.8127 73.6669C45.2956 73.3388 44.8913 72.8797 44.5996 72.2898C44.3113 71.6998 44.1671 71.0104 44.1671 70.2216C44.1671 69.4261 44.3113 68.7318 44.5996 68.1385C44.8913 67.5452 45.2956 67.0845 45.8127 66.7564C46.333 66.4283 46.9379 66.2642 47.6273 66.2642C48.3167 66.2642 48.9199 66.4283 49.437 66.7564C49.9573 67.0845 50.3617 67.5452 50.65 68.1385C50.9417 68.7318 51.0875 69.4261 51.0875 70.2216C51.0875 71.0104 50.9417 71.6998 50.65 72.2898C50.3617 72.8797 49.9573 73.3388 49.437 73.6669C48.9199 73.995 48.3167 74.1591 47.6273 74.1591ZM47.6273 73.1051C48.151 73.1051 48.5819 72.9709 48.9199 72.7024C49.258 72.4339 49.5082 72.081 49.6706 71.6435C49.833 71.206 49.9142 70.732 49.9142 70.2216C49.9142 69.7112 49.833 69.2356 49.6706 68.7947C49.5082 68.3539 49.258 67.9976 48.9199 67.7259C48.5819 67.4541 48.151 67.3182 47.6273 67.3182C47.1036 67.3182 46.6728 67.4541 46.3347 67.7259C45.9966 67.9976 45.7464 68.3539 45.584 68.7947C45.4216 69.2356 45.3404 69.7112 45.3404 70.2216C45.3404 70.732 45.4216 71.206 45.584 71.6435C45.7464 72.081 45.9966 72.4339 46.3347 72.7024C46.6728 72.9709 47.1036 73.1051 47.6273 73.1051ZM52.2024 74V72.9062H52.4808C52.7095 72.9062 52.9001 72.8615 53.0526 72.772C53.205 72.6792 53.3277 72.5185 53.4205 72.2898C53.5166 72.0578 53.5895 71.7363 53.6392 71.3253C53.6922 70.911 53.7304 70.384 53.7536 69.7443L53.8928 66.3636H58.9837V74H57.8104V67.4574H55.0064L54.8871 70.1818C54.8606 70.8082 54.8042 71.3601 54.718 71.8374C54.6352 72.3113 54.5076 72.709 54.3352 73.0305C54.1662 73.352 53.9408 73.594 53.6591 73.7564C53.3774 73.9188 53.0244 74 52.6001 74H52.2024ZM62.1506 69.1278H64.3381C65.233 69.1278 65.9174 69.3549 66.3913 69.8089C66.8653 70.263 67.1023 70.8381 67.1023 71.5341C67.1023 71.9915 66.9962 72.4074 66.7841 72.782C66.572 73.1532 66.2604 73.4498 65.8494 73.6719C65.4384 73.8906 64.9347 74 64.3381 74H61.1364V66.3636H62.3097V72.9062H64.3381C64.8021 72.9062 65.1832 72.7836 65.4815 72.5384C65.7798 72.2931 65.929 71.9782 65.929 71.5938C65.929 71.1894 65.7798 70.8596 65.4815 70.6044C65.1832 70.3492 64.8021 70.2216 64.3381 70.2216H62.1506V69.1278ZM73.9991 69.6449V70.7386H69.7832V69.6449H73.9991ZM70.0616 66.3636V74H68.8883V66.3636H70.0616ZM74.894 66.3636V74H73.7207V66.3636H74.894ZM78.051 69.1278H80.2385C81.1333 69.1278 81.8178 69.3549 82.2917 69.8089C82.7657 70.263 83.0027 70.8381 83.0027 71.5341C83.0027 71.9915 82.8966 72.4074 82.6845 72.782C82.4724 73.1532 82.1608 73.4498 81.7498 73.6719C81.3388 73.8906 80.835 74 80.2385 74H77.0368V66.3636H78.21V72.9062H80.2385C80.7025 72.9062 81.0836 72.7836 81.3819 72.5384C81.6802 72.2931 81.8294 71.9782 81.8294 71.5938C81.8294 71.1894 81.6802 70.8596 81.3819 70.6044C81.0836 70.3492 80.7025 70.2216 80.2385 70.2216H78.051V69.1278ZM84.2157 74V66.3636H85.389V74H84.2157ZM88.4118 66.3636L90.2413 69.4858L92.0708 66.3636H93.4231L90.9572 70.1818L93.4231 74H92.0708L90.2413 71.0369L88.4118 74H87.0595L89.4856 70.1818L87.0595 66.3636H88.4118ZM99.0348 74V66.3636H100.208V69.6847H100.984L103.728 66.3636H105.239L102.157 70.0426L105.279 74H103.768L101.262 70.7784H100.208V74H99.0348ZM105.878 74V72.9062H106.157C106.385 72.9062 106.576 72.8615 106.728 72.772C106.881 72.6792 107.003 72.5185 107.096 72.2898C107.192 72.0578 107.265 71.7363 107.315 71.3253C107.368 70.911 107.406 70.384 107.429 69.7443L107.569 66.3636H112.659V74H111.486V67.4574H108.682L108.563 70.1818C108.536 70.8082 108.48 71.3601 108.394 71.8374C108.311 72.3113 108.183 72.709 108.011 73.0305C107.842 73.352 107.617 73.594 107.335 73.7564C107.053 73.9188 106.7 74 106.276 74H105.878ZM115.985 72.2699L119.664 66.3636H121.017V74H119.843V68.0938L116.184 74H114.812V66.3636H115.985V72.2699ZM126.367 74.1591C125.632 74.1591 124.997 73.9967 124.463 73.6719C123.933 73.3438 123.524 72.8864 123.235 72.2997C122.95 71.7098 122.808 71.0237 122.808 70.2415C122.808 69.4593 122.95 68.7699 123.235 68.1733C123.524 67.5734 123.925 67.1061 124.438 66.7713C124.955 66.4332 125.559 66.2642 126.248 66.2642C126.646 66.2642 127.039 66.3305 127.426 66.4631C127.814 66.5956 128.167 66.8111 128.485 67.1094C128.803 67.4044 129.057 67.7955 129.246 68.2827C129.435 68.7699 129.529 69.3698 129.529 70.0824V70.5795H123.643V69.5653H128.336C128.336 69.1345 128.25 68.75 128.078 68.4119C127.909 68.0739 127.667 67.8071 127.352 67.6115C127.04 67.416 126.672 67.3182 126.248 67.3182C125.781 67.3182 125.376 67.4342 125.035 67.6662C124.697 67.8949 124.437 68.1932 124.254 68.5611C124.072 68.929 123.981 69.3234 123.981 69.7443V70.4205C123.981 70.9972 124.08 71.486 124.279 71.8871C124.481 72.2848 124.762 72.5881 125.119 72.7969C125.477 73.0024 125.893 73.1051 126.367 73.1051C126.676 73.1051 126.954 73.062 127.203 72.9759C127.454 72.8864 127.672 72.7538 127.854 72.5781C128.036 72.3991 128.177 72.1771 128.276 71.9119L129.41 72.2301C129.291 72.6146 129.09 72.9527 128.808 73.2443C128.527 73.5327 128.179 73.758 127.764 73.9205C127.35 74.0795 126.884 74.1591 126.367 74.1591ZM136.425 69.6449V70.7386H132.209V69.6449H136.425ZM132.487 66.3636V74H131.314V66.3636H132.487ZM137.32 66.3636V74H136.146V66.3636H137.32ZM138.423 67.4574V66.3636H144.628V67.4574H142.122V74H140.949V67.4574H138.423ZM149.045 74.1591C148.356 74.1591 147.751 73.995 147.231 73.6669C146.714 73.3388 146.309 72.8797 146.018 72.2898C145.729 71.6998 145.585 71.0104 145.585 70.2216C145.585 69.4261 145.729 68.7318 146.018 68.1385C146.309 67.5452 146.714 67.0845 147.231 66.7564C147.751 66.4283 148.356 66.2642 149.045 66.2642C149.735 66.2642 150.338 66.4283 150.855 66.7564C151.375 67.0845 151.78 67.5452 152.068 68.1385C152.36 68.7318 152.506 69.4261 152.506 70.2216C152.506 71.0104 152.36 71.6998 152.068 72.2898C151.78 72.8797 151.375 73.3388 150.855 73.6669C150.338 73.995 149.735 74.1591 149.045 74.1591ZM149.045 73.1051C149.569 73.1051 150 72.9709 150.338 72.7024C150.676 72.4339 150.926 72.081 151.089 71.6435C151.251 71.206 151.332 70.732 151.332 70.2216C151.332 69.7112 151.251 69.2356 151.089 68.7947C150.926 68.3539 150.676 67.9976 150.338 67.7259C150 67.4541 149.569 67.3182 149.045 67.3182C148.522 67.3182 148.091 67.4541 147.753 67.7259C147.415 67.9976 147.164 68.3539 147.002 68.7947C146.84 69.2356 146.758 69.7112 146.758 70.2216C146.758 70.732 146.84 71.206 147.002 71.6435C147.164 72.081 147.415 72.4339 147.753 72.7024C148.091 72.9709 148.522 73.1051 149.045 73.1051ZM154.297 74V66.3636H157.419C158.241 66.3636 158.894 66.5492 159.377 66.9205C159.861 67.2917 160.103 67.7822 160.103 68.392C160.103 68.8561 159.966 69.2157 159.691 69.4709C159.416 69.7228 159.063 69.8935 158.632 69.983C158.913 70.0227 159.187 70.1222 159.452 70.2812C159.721 70.4403 159.943 70.6591 160.118 70.9375C160.294 71.2126 160.382 71.5507 160.382 71.9517C160.382 72.3428 160.282 72.6925 160.083 73.0007C159.885 73.3089 159.6 73.5526 159.228 73.7315C158.857 73.9105 158.413 74 157.896 74H154.297ZM155.41 72.9261H157.896C158.3 72.9261 158.617 72.83 158.846 72.6378C159.074 72.4455 159.189 72.1837 159.189 71.8523C159.189 71.4579 159.074 71.148 158.846 70.9226C158.617 70.6939 158.3 70.5795 157.896 70.5795H155.41V72.9261ZM155.41 69.5653H157.419C157.734 69.5653 158.004 69.5223 158.229 69.4361C158.454 69.3466 158.627 69.2206 158.746 69.0582C158.869 68.8925 158.93 68.697 158.93 68.4716C158.93 68.1501 158.796 67.8982 158.527 67.7159C158.259 67.5303 157.889 67.4375 157.419 67.4375H155.41V69.5653Z" fill="white"/>
</g>
</svg>
