<svg width="543" height="80" viewBox="0 0 543 80" fill="none" xmlns="http://www.w3.org/2000/svg">
<path id="&#208;&#144;&#208;&#178;&#209;&#130;&#208;&#190;&#209;&#129;&#208;&#181;&#209;&#128;&#208;&#178;&#208;&#184;&#209;&#129;, &#208;&#186;&#208;&#190;&#209;&#130;&#208;&#190;&#209;&#128;&#208;&#190;&#208;&#188;&#209;&#131; &#208;&#180;&#208;&#190;&#208;&#178;&#208;&#181;&#209;&#128;&#209;&#143;&#209;&#142;&#209;&#130;" d="M7.54261 35H0.951705L10.9943 5.90909H18.9205L28.9489 35H22.358L15.071 12.5568H14.8438L7.54261 35ZM7.13068 23.5653H22.6989V28.3665H7.13068V23.5653ZM32.4503 35V5.90909H44.098C46.2382 5.90909 48.0232 6.22633 49.4531 6.8608C50.883 7.49527 51.9579 8.37595 52.6776 9.50284C53.3973 10.6203 53.7571 11.9081 53.7571 13.3665C53.7571 14.5028 53.5298 15.5019 53.0753 16.3636C52.6207 17.2159 51.9957 17.9167 51.2003 18.4659C50.4143 19.0057 49.5147 19.3892 48.5014 19.6165V19.9006C49.6094 19.9479 50.6463 20.2604 51.6122 20.8381C52.5876 21.4157 53.3783 22.2254 53.9844 23.267C54.5904 24.2992 54.8935 25.5303 54.8935 26.9602C54.8935 28.5038 54.5099 29.8816 53.7429 31.0938C52.9853 32.2964 51.8632 33.2481 50.3764 33.9489C48.8897 34.6496 47.0573 35 44.8793 35H32.4503ZM38.6009 29.9716H43.6151C45.3291 29.9716 46.5791 29.6449 47.3651 28.9915C48.151 28.3286 48.544 27.4479 48.544 26.3494C48.544 25.5445 48.3499 24.8343 47.9616 24.2188C47.5734 23.6032 47.0194 23.1203 46.2997 22.7699C45.5895 22.4195 44.742 22.2443 43.7571 22.2443H38.6009V29.9716ZM38.6009 18.0824H43.1605C44.0033 18.0824 44.7514 17.9356 45.4048 17.642C46.0677 17.339 46.5885 16.9129 46.9673 16.3636C47.3556 15.8144 47.5497 15.1562 47.5497 14.3892C47.5497 13.3381 47.1757 12.4905 46.4276 11.8466C45.6889 11.2027 44.6378 10.8807 43.2741 10.8807H38.6009V18.0824ZM57.7876 10.9801V5.90909H81.6797V10.9801H72.7734V35H66.6939V10.9801H57.7876ZM111.019 20.4545C111.019 23.6269 110.418 26.3258 109.215 28.5511C108.022 30.7765 106.393 32.4763 104.329 33.6506C102.274 34.8153 99.9633 35.3977 97.397 35.3977C94.8118 35.3977 92.4917 34.8106 90.4368 33.6364C88.3819 32.4621 86.7578 30.7623 85.5646 28.5369C84.3714 26.3116 83.7749 23.6174 83.7749 20.4545C83.7749 17.2822 84.3714 14.5833 85.5646 12.358C86.7578 10.1326 88.3819 8.4375 90.4368 7.27273C92.4917 6.09848 94.8118 5.51136 97.397 5.51136C99.9633 5.51136 102.274 6.09848 104.329 7.27273C106.393 8.4375 108.022 10.1326 109.215 12.358C110.418 14.5833 111.019 17.2822 111.019 20.4545ZM104.783 20.4545C104.783 18.3996 104.476 16.6667 103.86 15.2557C103.254 13.8447 102.397 12.7746 101.289 12.0455C100.181 11.3163 98.8838 10.9517 97.397 10.9517C95.9103 10.9517 94.6129 11.3163 93.505 12.0455C92.397 12.7746 91.5353 13.8447 90.9197 15.2557C90.3137 16.6667 90.0107 18.3996 90.0107 20.4545C90.0107 22.5095 90.3137 24.2424 90.9197 25.6534C91.5353 27.0644 92.397 28.1345 93.505 28.8636C94.6129 29.5928 95.9103 29.9574 97.397 29.9574C98.8838 29.9574 100.181 29.5928 101.289 28.8636C102.397 28.1345 103.254 27.0644 103.86 25.6534C104.476 24.2424 104.783 22.5095 104.783 20.4545ZM141.243 16.0938H135.021C134.908 15.2888 134.676 14.5739 134.325 13.9489C133.975 13.3144 133.525 12.7746 132.976 12.3295C132.427 11.8845 131.792 11.5436 131.072 11.3068C130.362 11.0701 129.59 10.9517 128.757 10.9517C127.251 10.9517 125.94 11.3258 124.822 12.0739C123.705 12.8125 122.839 13.892 122.223 15.3125C121.607 16.7235 121.3 18.4375 121.3 20.4545C121.3 22.5284 121.607 24.2708 122.223 25.6818C122.848 27.0928 123.719 28.1581 124.837 28.8778C125.954 29.5975 127.247 29.9574 128.714 29.9574C129.538 29.9574 130.301 29.8485 131.001 29.6307C131.712 29.4129 132.341 29.0956 132.891 28.679C133.44 28.2528 133.894 27.7367 134.254 27.1307C134.624 26.5246 134.879 25.8333 135.021 25.0568L141.243 25.0852C141.082 26.4205 140.679 27.7083 140.036 28.9489C139.401 30.1799 138.544 31.2831 137.464 32.2585C136.394 33.2244 135.116 33.9915 133.629 34.5597C132.152 35.1184 130.481 35.3977 128.615 35.3977C126.02 35.3977 123.7 34.8106 121.655 33.6364C119.619 32.4621 118.009 30.7623 116.825 28.5369C115.651 26.3116 115.064 23.6174 115.064 20.4545C115.064 17.2822 115.661 14.5833 116.854 12.358C118.047 10.1326 119.666 8.4375 121.712 7.27273C123.757 6.09848 126.058 5.51136 128.615 5.51136C130.301 5.51136 131.863 5.74811 133.303 6.22159C134.751 6.69508 136.035 7.38636 137.152 8.29545C138.269 9.19507 139.179 10.2983 139.879 11.6051C140.589 12.9119 141.044 14.4081 141.243 16.0938ZM145.653 35V5.90909H165.256V10.9801H151.804V17.9119H164.247V22.983H151.804V29.929H165.312V35H145.653ZM170.146 35V5.90909H181.623C183.829 5.90909 185.709 6.33049 187.262 7.1733C188.815 8.00663 189.999 9.16667 190.813 10.6534C191.637 12.1307 192.049 13.8352 192.049 15.767C192.049 17.6989 191.632 19.4034 190.799 20.8807C189.966 22.358 188.758 23.5085 187.177 24.3324C185.605 25.1562 183.701 25.5682 181.467 25.5682H174.151V20.6392H180.472C181.656 20.6392 182.631 20.4356 183.398 20.0284C184.175 19.6117 184.753 19.0388 185.131 18.3097C185.52 17.571 185.714 16.7235 185.714 15.767C185.714 14.8011 185.52 13.9583 185.131 13.2386C184.753 12.5095 184.175 11.946 183.398 11.5483C182.622 11.1411 181.637 10.9375 180.444 10.9375H176.296V35H170.146ZM196.044 35V5.90909H207.692C209.832 5.90909 211.617 6.22633 213.047 6.8608C214.477 7.49527 215.552 8.37595 216.271 9.50284C216.991 10.6203 217.351 11.9081 217.351 13.3665C217.351 14.5028 217.124 15.5019 216.669 16.3636C216.214 17.2159 215.589 17.9167 214.794 18.4659C214.008 19.0057 213.108 19.3892 212.095 19.6165V19.9006C213.203 19.9479 214.24 20.2604 215.206 20.8381C216.181 21.4157 216.972 22.2254 217.578 23.267C218.184 24.2992 218.487 25.5303 218.487 26.9602C218.487 28.5038 218.104 29.8816 217.337 31.0938C216.579 32.2964 215.457 33.2481 213.97 33.9489C212.483 34.6496 210.651 35 208.473 35H196.044ZM202.195 29.9716H207.209C208.923 29.9716 210.173 29.6449 210.959 28.9915C211.745 28.3286 212.138 27.4479 212.138 26.3494C212.138 25.5445 211.944 24.8343 211.555 24.2188C211.167 23.6032 210.613 23.1203 209.893 22.7699C209.183 22.4195 208.336 22.2443 207.351 22.2443H202.195V29.9716ZM202.195 18.0824H206.754C207.597 18.0824 208.345 17.9356 208.999 17.642C209.661 17.339 210.182 16.9129 210.561 16.3636C210.949 15.8144 211.143 15.1562 211.143 14.3892C211.143 13.3381 210.769 12.4905 210.021 11.8466C209.283 11.2027 208.232 10.8807 206.868 10.8807H202.195V18.0824ZM222.489 5.90909H228.626V24.2045H228.867L241.438 5.90909H246.822V35H240.671V16.6903H240.458L227.816 35H222.489V5.90909ZM277.571 16.0938H271.349C271.236 15.2888 271.004 14.5739 270.653 13.9489C270.303 13.3144 269.853 12.7746 269.304 12.3295C268.755 11.8845 268.12 11.5436 267.401 11.3068C266.69 11.0701 265.919 10.9517 265.085 10.9517C263.58 10.9517 262.268 11.3258 261.151 12.0739C260.033 12.8125 259.167 13.892 258.551 15.3125C257.936 16.7235 257.628 18.4375 257.628 20.4545C257.628 22.5284 257.936 24.2708 258.551 25.6818C259.176 27.0928 260.047 28.1581 261.165 28.8778C262.282 29.5975 263.575 29.9574 265.043 29.9574C265.866 29.9574 266.629 29.8485 267.33 29.6307C268.04 29.4129 268.67 29.0956 269.219 28.679C269.768 28.2528 270.223 27.7367 270.582 27.1307C270.952 26.5246 271.207 25.8333 271.349 25.0568L277.571 25.0852C277.41 26.4205 277.008 27.7083 276.364 28.9489C275.729 30.1799 274.872 31.2831 273.793 32.2585C272.723 33.2244 271.444 33.9915 269.957 34.5597C268.48 35.1184 266.809 35.3977 264.943 35.3977C262.348 35.3977 260.028 34.8106 257.983 33.6364C255.947 32.4621 254.337 30.7623 253.153 28.5369C251.979 26.3116 251.392 23.6174 251.392 20.4545C251.392 17.2822 251.989 14.5833 253.182 12.358C254.375 10.1326 255.994 8.4375 258.04 7.27273C260.085 6.09848 262.386 5.51136 264.943 5.51136C266.629 5.51136 268.191 5.74811 269.631 6.22159C271.08 6.69508 272.363 7.38636 273.48 8.29545C274.598 9.19507 275.507 10.2983 276.207 11.6051C276.918 12.9119 277.372 14.4081 277.571 16.0938ZM288.445 31.0227L288.288 32.5852C288.165 33.8352 287.929 35.0805 287.578 36.321C287.237 37.571 286.877 38.7027 286.499 39.7159C286.129 40.7292 285.831 41.5246 285.604 42.1023H281.683C281.825 41.5436 282.019 40.7623 282.266 39.7585C282.512 38.7642 282.744 37.6468 282.962 36.4062C283.179 35.1657 283.317 33.9015 283.374 32.6136L283.445 31.0227H288.445ZM319.581 35L310.234 22.5994H308.132V35H301.982V5.90909H308.132V17.5284H309.368L319.027 5.90909H326.683L315.334 19.4034L327.209 35H319.581ZM355.394 20.4545C355.394 23.6269 354.793 26.3258 353.59 28.5511C352.397 30.7765 350.768 32.4763 348.704 33.6506C346.649 34.8153 344.338 35.3977 341.772 35.3977C339.187 35.3977 336.867 34.8106 334.812 33.6364C332.757 32.4621 331.133 30.7623 329.94 28.5369C328.746 26.3116 328.15 23.6174 328.15 20.4545C328.15 17.2822 328.746 14.5833 329.94 12.358C331.133 10.1326 332.757 8.4375 334.812 7.27273C336.867 6.09848 339.187 5.51136 341.772 5.51136C344.338 5.51136 346.649 6.09848 348.704 7.27273C350.768 8.4375 352.397 10.1326 353.59 12.358C354.793 14.5833 355.394 17.2822 355.394 20.4545ZM349.158 20.4545C349.158 18.3996 348.851 16.6667 348.235 15.2557C347.629 13.8447 346.772 12.7746 345.664 12.0455C344.556 11.3163 343.259 10.9517 341.772 10.9517C340.285 10.9517 338.988 11.3163 337.88 12.0455C336.772 12.7746 335.91 13.8447 335.295 15.2557C334.689 16.6667 334.386 18.3996 334.386 20.4545C334.386 22.5095 334.689 24.2424 335.295 25.6534C335.91 27.0644 336.772 28.1345 337.88 28.8636C338.988 29.5928 340.285 29.9574 341.772 29.9574C343.259 29.9574 344.556 29.5928 345.664 28.8636C346.772 28.1345 347.629 27.0644 348.235 25.6534C348.851 24.2424 349.158 22.5095 349.158 20.4545ZM357.514 10.9801V5.90909H381.406V10.9801H372.5V35H366.42V10.9801H357.514ZM410.746 20.4545C410.746 23.6269 410.144 26.3258 408.942 28.5511C407.749 30.7765 406.12 32.4763 404.055 33.6506C402 34.8153 399.69 35.3977 397.124 35.3977C394.538 35.3977 392.218 34.8106 390.163 33.6364C388.108 32.4621 386.484 30.7623 385.291 28.5369C384.098 26.3116 383.501 23.6174 383.501 20.4545C383.501 17.2822 384.098 14.5833 385.291 12.358C386.484 10.1326 388.108 8.4375 390.163 7.27273C392.218 6.09848 394.538 5.51136 397.124 5.51136C399.69 5.51136 402 6.09848 404.055 7.27273C406.12 8.4375 407.749 10.1326 408.942 12.358C410.144 14.5833 410.746 17.2822 410.746 20.4545ZM404.51 20.4545C404.51 18.3996 404.202 16.6667 403.587 15.2557C402.981 13.8447 402.124 12.7746 401.016 12.0455C399.908 11.3163 398.61 10.9517 397.124 10.9517C395.637 10.9517 394.339 11.3163 393.232 12.0455C392.124 12.7746 391.262 13.8447 390.646 15.2557C390.04 16.6667 389.737 18.3996 389.737 20.4545C389.737 22.5095 390.04 24.2424 390.646 25.6534C391.262 27.0644 392.124 28.1345 393.232 28.8636C394.339 29.5928 395.637 29.9574 397.124 29.9574C398.61 29.9574 399.908 29.5928 401.016 28.8636C402.124 28.1345 402.981 27.0644 403.587 25.6534C404.202 24.2424 404.51 22.5095 404.51 20.4545ZM415.302 35V5.90909H426.779C428.986 5.90909 430.865 6.33049 432.418 7.1733C433.971 8.00663 435.155 9.16667 435.969 10.6534C436.793 12.1307 437.205 13.8352 437.205 15.767C437.205 17.6989 436.789 19.4034 435.955 20.8807C435.122 22.358 433.915 23.5085 432.333 24.3324C430.761 25.1562 428.858 25.5682 426.623 25.5682H419.308V20.6392H425.629C426.812 20.6392 427.788 20.4356 428.555 20.0284C429.331 19.6117 429.909 19.0388 430.288 18.3097C430.676 17.571 430.87 16.7235 430.87 15.767C430.87 14.8011 430.676 13.9583 430.288 13.2386C429.909 12.5095 429.331 11.946 428.555 11.5483C427.778 11.1411 426.793 10.9375 425.6 10.9375H421.452V35H415.302ZM467.933 20.4545C467.933 23.6269 467.332 26.3258 466.129 28.5511C464.936 30.7765 463.307 32.4763 461.243 33.6506C459.188 34.8153 456.877 35.3977 454.311 35.3977C451.726 35.3977 449.406 34.8106 447.351 33.6364C445.296 32.4621 443.672 30.7623 442.479 28.5369C441.286 26.3116 440.689 23.6174 440.689 20.4545C440.689 17.2822 441.286 14.5833 442.479 12.358C443.672 10.1326 445.296 8.4375 447.351 7.27273C449.406 6.09848 451.726 5.51136 454.311 5.51136C456.877 5.51136 459.188 6.09848 461.243 7.27273C463.307 8.4375 464.936 10.1326 466.129 12.358C467.332 14.5833 467.933 17.2822 467.933 20.4545ZM461.697 20.4545C461.697 18.3996 461.39 16.6667 460.774 15.2557C460.168 13.8447 459.311 12.7746 458.203 12.0455C457.095 11.3163 455.798 10.9517 454.311 10.9517C452.824 10.9517 451.527 11.3163 450.419 12.0455C449.311 12.7746 448.449 13.8447 447.834 15.2557C447.228 16.6667 446.925 18.3996 446.925 20.4545C446.925 22.5095 447.228 24.2424 447.834 25.6534C448.449 27.0644 449.311 28.1345 450.419 28.8636C451.527 29.5928 452.824 29.9574 454.311 29.9574C455.798 29.9574 457.095 29.5928 458.203 28.8636C459.311 28.1345 460.168 27.0644 460.774 25.6534C461.39 24.2424 461.697 22.5095 461.697 20.4545ZM472.489 5.90909H480.075L488.086 25.4545H488.427L496.438 5.90909H504.023V35H498.058V16.0653H497.816L490.288 34.858H486.225L478.697 15.9943H478.455V35H472.489V5.90909ZM512.23 35.3977V30.3977H513.807C514.593 30.3977 515.227 30.303 515.71 30.1136C516.193 29.9148 516.577 29.6259 516.861 29.2472C517.154 28.8589 517.401 28.3759 517.599 27.7983L517.955 26.8466L507.386 5.90909H513.75L520.597 20.2273L526.321 5.90909H532.599L522.571 29.2898C522.088 30.3693 521.515 31.3731 520.852 32.3011C520.199 33.2292 519.361 33.9773 518.338 34.5455C517.315 35.1136 516.009 35.3977 514.418 35.3977H512.23ZM0.951705 82.017V70.0994H2.92614C3.59848 69.6165 4.21402 68.9347 4.77273 68.054C5.33144 67.1638 5.80966 65.9375 6.20739 64.375C6.60511 62.803 6.8892 60.7481 7.05966 58.2102L7.88352 45.9091H27.1307V70.0994H30.3125V81.9886H24.4034V75H6.8608V82.017H0.951705ZM10.0284 70.0994H21.2216V50.9801H13.4233L12.9688 58.2102C12.8456 60.1326 12.642 61.8371 12.358 63.3239C12.0833 64.8106 11.7472 66.1127 11.3494 67.2301C10.9612 68.3381 10.5208 69.2945 10.0284 70.0994ZM60.7848 60.4545C60.7848 63.6269 60.1835 66.3258 58.9808 68.5511C57.7876 70.7765 56.1589 72.4763 54.0945 73.6506C52.0395 74.8153 49.7289 75.3977 47.1626 75.3977C44.5774 75.3977 42.2573 74.8106 40.2024 73.6364C38.1475 72.4621 36.5234 70.7623 35.3303 68.5369C34.1371 66.3116 33.5405 63.6174 33.5405 60.4545C33.5405 57.2822 34.1371 54.5833 35.3303 52.358C36.5234 50.1326 38.1475 48.4375 40.2024 47.2727C42.2573 46.0985 44.5774 45.5114 47.1626 45.5114C49.7289 45.5114 52.0395 46.0985 54.0945 47.2727C56.1589 48.4375 57.7876 50.1326 58.9808 52.358C60.1835 54.5833 60.7848 57.2822 60.7848 60.4545ZM54.549 60.4545C54.549 58.3996 54.2412 56.6667 53.6257 55.2557C53.0196 53.8447 52.1626 52.7746 51.0547 52.0455C49.9467 51.3163 48.6494 50.9517 47.1626 50.9517C45.6759 50.9517 44.3786 51.3163 43.2706 52.0455C42.1626 52.7746 41.3009 53.8447 40.6854 55.2557C40.0793 56.6667 39.7763 58.3996 39.7763 60.4545C39.7763 62.5095 40.0793 64.2424 40.6854 65.6534C41.3009 67.0644 42.1626 68.1345 43.2706 68.8636C44.3786 69.5928 45.6759 69.9574 47.1626 69.9574C48.6494 69.9574 49.9467 69.5928 51.0547 68.8636C52.1626 68.1345 53.0196 67.0644 53.6257 65.6534C54.2412 64.2424 54.549 62.5095 54.549 60.4545ZM65.3409 75V45.9091H76.9886C79.1288 45.9091 80.9138 46.2263 82.3438 46.8608C83.7737 47.4953 84.8485 48.3759 85.5682 49.5028C86.2879 50.6203 86.6477 51.9081 86.6477 53.3665C86.6477 54.5028 86.4205 55.5019 85.9659 56.3636C85.5114 57.2159 84.8864 57.9167 84.0909 58.4659C83.3049 59.0057 82.4053 59.3892 81.392 59.6165V59.9006C82.5 59.9479 83.5369 60.2604 84.5028 60.8381C85.4782 61.4157 86.2689 62.2254 86.875 63.267C87.4811 64.2992 87.7841 65.5303 87.7841 66.9602C87.7841 68.5038 87.4006 69.8816 86.6335 71.0938C85.8759 72.2964 84.7538 73.2481 83.267 73.9489C81.7803 74.6496 79.9479 75 77.7699 75H65.3409ZM71.4915 69.9716H76.5057C78.2197 69.9716 79.4697 69.6449 80.2557 68.9915C81.0417 68.3286 81.4347 67.4479 81.4347 66.3494C81.4347 65.5445 81.2405 64.8343 80.8523 64.2188C80.464 63.6032 79.91 63.1203 79.1903 62.7699C78.4801 62.4195 77.6326 62.2443 76.6477 62.2443H71.4915V69.9716ZM71.4915 58.0824H76.0511C76.8939 58.0824 77.642 57.9356 78.2955 57.642C78.9583 57.339 79.4792 56.9129 79.858 56.3636C80.2462 55.8144 80.4403 55.1562 80.4403 54.3892C80.4403 53.3381 80.0663 52.4905 79.3182 51.8466C78.5795 51.2027 77.5284 50.8807 76.1648 50.8807H71.4915V58.0824ZM91.7862 75V45.9091H111.388V50.9801H97.9368V57.9119H110.38V62.983H97.9368V69.929H111.445V75H91.7862ZM116.278 75V45.9091H127.756C129.962 45.9091 131.842 46.3305 133.395 47.1733C134.948 48.0066 136.132 49.1667 136.946 50.6534C137.77 52.1307 138.182 53.8352 138.182 55.767C138.182 57.6989 137.765 59.4034 136.932 60.8807C136.098 62.358 134.891 63.5085 133.31 64.3324C131.738 65.1562 129.834 65.5682 127.599 65.5682H120.284V60.6392H126.605C127.789 60.6392 128.764 60.4356 129.531 60.0284C130.308 59.6117 130.885 59.0388 131.264 58.3097C131.652 57.571 131.847 56.7235 131.847 55.767C131.847 54.8011 131.652 53.9583 131.264 53.2386C130.885 52.5095 130.308 51.946 129.531 51.5483C128.755 51.1411 127.77 50.9375 126.577 50.9375H122.429V75H116.278ZM164.506 75H158.37V50.9375H154.222C153.039 50.9375 152.054 51.1127 151.268 51.4631C150.491 51.804 149.909 52.3059 149.521 52.9688C149.132 53.6316 148.938 54.446 148.938 55.4119C148.938 56.3684 149.132 57.1686 149.521 57.8125C149.909 58.4564 150.491 58.9394 151.268 59.2614C152.044 59.5833 153.02 59.7443 154.194 59.7443H160.87V64.6875H153.2C150.974 64.6875 149.071 64.3182 147.489 63.5795C145.908 62.8409 144.701 61.7803 143.867 60.3977C143.034 59.0057 142.617 57.3437 142.617 55.4119C142.617 53.4896 143.024 51.8182 143.839 50.3977C144.663 48.9678 145.851 47.8646 147.404 47.0881C148.967 46.3021 150.846 45.9091 153.043 45.9091H164.506V75ZM148.81 61.7614H155.444L148.37 75H141.58L148.81 61.7614ZM175.71 45.9091V75H169.56V45.9091H175.71ZM181.96 58.5653V63.3665H172.67V58.5653H181.96ZM207.287 60.4545C207.287 63.6269 206.686 66.3258 205.483 68.5511C204.29 70.7765 202.661 72.4763 200.597 73.6506C198.542 74.8153 196.231 75.3977 193.665 75.3977C191.08 75.3977 188.759 74.8106 186.705 73.6364C184.65 72.4621 183.026 70.7623 181.832 68.5369C180.639 66.3116 180.043 63.6174 180.043 60.4545C180.043 57.2822 180.639 54.5833 181.832 52.358C183.026 50.1326 184.65 48.4375 186.705 47.2727C188.759 46.0985 191.08 45.5114 193.665 45.5114C196.231 45.5114 198.542 46.0985 200.597 47.2727C202.661 48.4375 204.29 50.1326 205.483 52.358C206.686 54.5833 207.287 57.2822 207.287 60.4545ZM201.051 60.4545C201.051 58.3996 200.743 56.6667 200.128 55.2557C199.522 53.8447 198.665 52.7746 197.557 52.0455C196.449 51.3163 195.152 50.9517 193.665 50.9517C192.178 50.9517 190.881 51.3163 189.773 52.0455C188.665 52.7746 187.803 53.8447 187.188 55.2557C186.581 56.6667 186.278 58.3996 186.278 60.4545C186.278 62.5095 186.581 64.2424 187.188 65.6534C187.803 67.0644 188.665 68.1345 189.773 68.8636C190.881 69.5928 192.178 69.9574 193.665 69.9574C195.152 69.9574 196.449 69.5928 197.557 68.8636C198.665 68.1345 199.522 67.0644 200.128 65.6534C200.743 64.2424 201.051 62.5095 201.051 60.4545ZM210.717 50.9801V45.9091H234.609V50.9801H225.703V75H219.624V50.9801H210.717Z" fill="white"/>
</svg>
