<svg width="235" height="24" viewBox="0 0 235 24" fill="none" xmlns="http://www.w3.org/2000/svg">
<g id="&#208;&#175;&#208;&#189;&#208;&#180;&#208;&#181;&#208;&#186;&#209;&#129;">
<rect id="Rectangle 153" width="149" height="24" rx="5" fill="#EDEDED"/>
<path id="5.0" d="M9.54403 17.1392C8.84138 17.1392 8.21496 17.0099 7.66477 16.7514C7.1179 16.4929 6.68371 16.1366 6.36222 15.6825C6.04072 15.2285 5.87334 14.7081 5.86009 14.1214H7.94815C7.97135 14.5159 8.13707 14.8357 8.44531 15.081C8.75355 15.3262 9.11979 15.4489 9.54403 15.4489C9.8821 15.4489 10.1804 15.3743 10.4389 15.2251C10.7008 15.0727 10.9046 14.8622 11.0504 14.5938C11.1996 14.322 11.2741 14.0104 11.2741 13.6591C11.2741 13.3011 11.1979 12.9863 11.0455 12.7145C10.8963 12.4427 10.6892 12.2306 10.424 12.0781C10.1589 11.9257 9.85559 11.8478 9.5142 11.8445C9.21591 11.8445 8.9259 11.9058 8.64418 12.0284C8.36577 12.151 8.14867 12.3184 7.9929 12.5305L6.07884 12.1875L6.56108 6.81818H12.7855V8.57812H8.33594L8.07244 11.1286H8.1321C8.31108 10.8767 8.5812 10.6679 8.94247 10.5021C9.30374 10.3364 9.7081 10.2536 10.1555 10.2536C10.7687 10.2536 11.3156 10.3977 11.7962 10.6861C12.2768 10.9744 12.6562 11.3705 12.9347 11.8743C13.2131 12.3748 13.3506 12.9515 13.3473 13.6044C13.3506 14.2905 13.1915 14.9003 12.87 15.4339C12.5518 15.9643 12.1061 16.3819 11.5327 16.6868C10.9626 16.9884 10.2997 17.1392 9.54403 17.1392ZM15.7784 17.1293C15.4503 17.1293 15.1686 17.0133 14.9332 16.7812C14.7012 16.5459 14.5852 16.2642 14.5852 15.9361C14.5852 15.6113 14.7012 15.3329 14.9332 15.1009C15.1686 14.8688 15.4503 14.7528 15.7784 14.7528C16.0966 14.7528 16.375 14.8688 16.6136 15.1009C16.8523 15.3329 16.9716 15.6113 16.9716 15.9361C16.9716 16.1548 16.9152 16.3554 16.8026 16.5376C16.6932 16.7166 16.549 16.8608 16.37 16.9702C16.1911 17.0762 15.9938 17.1293 15.7784 17.1293ZM22.2725 17.2237C21.4174 17.2204 20.6816 17.0099 20.0652 16.5923C19.452 16.1747 18.9797 15.5698 18.6483 14.7777C18.3201 13.9856 18.1577 13.0327 18.161 11.919C18.161 10.8087 18.3251 9.86245 18.6532 9.08026C18.9847 8.29806 19.457 7.70312 20.0701 7.29545C20.6866 6.88447 21.4208 6.67898 22.2725 6.67898C23.1243 6.67898 23.8568 6.88447 24.47 7.29545C25.0865 7.70644 25.5604 8.30303 25.8919 9.08523C26.2233 9.86411 26.3874 10.8087 26.3841 11.919C26.3841 13.036 26.2183 13.9905 25.8869 14.7827C25.5588 15.5748 25.0881 16.1797 24.475 16.5973C23.8618 17.0149 23.1277 17.2237 22.2725 17.2237ZM22.2725 15.4389C22.8559 15.4389 23.3216 15.1456 23.6696 14.5589C24.0176 13.9723 24.1899 13.0923 24.1866 11.919C24.1866 11.1468 24.1071 10.5038 23.948 9.99006C23.7922 9.47633 23.5701 9.0902 23.2818 8.83168C22.9967 8.57315 22.6603 8.44389 22.2725 8.44389C21.6925 8.44389 21.2285 8.7339 20.8805 9.31392C20.5325 9.89394 20.3568 10.7623 20.3535 11.919C20.3535 12.7012 20.4314 13.3542 20.5872 13.8778C20.7463 14.3982 20.97 14.7893 21.2583 15.0511C21.5467 15.3097 21.8848 15.4389 22.2725 15.4389Z" fill="black"/>
<path id="&#208;&#175;&#208;&#189;&#208;&#180;&#208;&#181;&#208;&#186;&#209;&#129; 5.0" d="M165.7 17H163.553V8.57812H162.101C161.687 8.57812 161.342 8.63944 161.067 8.76207C160.795 8.88139 160.591 9.05705 160.455 9.28906C160.319 9.52107 160.251 9.80611 160.251 10.1442C160.251 10.4789 160.319 10.759 160.455 10.9844C160.591 11.2098 160.795 11.3788 161.067 11.4915C161.339 11.6042 161.68 11.6605 162.091 11.6605H164.428V13.3906H161.743C160.964 13.3906 160.298 13.2614 159.744 13.0028C159.191 12.7443 158.768 12.3731 158.477 11.8892C158.185 11.402 158.039 10.8203 158.039 10.1442C158.039 9.47135 158.182 8.88636 158.467 8.3892C158.755 7.88873 159.171 7.5026 159.714 7.23082C160.261 6.95573 160.919 6.81818 161.688 6.81818H165.7V17ZM160.207 12.3665H162.528L160.053 17H157.676L160.207 12.3665ZM172.744 12.3366V14.0021H168.757V12.3366H172.744ZM169.453 9.36364V17H167.429V9.36364H169.453ZM174.071 9.36364V17H172.063V9.36364H174.071ZM175.118 19.2372V15.3196H175.704C175.873 15.2135 176.009 15.0445 176.112 14.8125C176.218 14.5805 176.304 14.3071 176.371 13.9922C176.44 13.6773 176.493 13.3376 176.53 12.973C176.569 12.6051 176.604 12.2339 176.634 11.8594L176.833 9.36364H182.689V15.3196H183.873V19.2372H181.854V17H177.186V19.2372H175.118ZM177.812 15.3196H180.691V10.9943H178.633L178.553 11.8594C178.497 12.6747 178.416 13.3674 178.309 13.9375C178.203 14.5043 178.038 14.965 177.812 15.3196ZM188.587 17.1491C187.801 17.1491 187.125 16.9901 186.559 16.6719C185.995 16.3504 185.561 15.8963 185.256 15.3097C184.951 14.7197 184.799 14.022 184.799 13.2166C184.799 12.4311 184.951 11.7417 185.256 11.1484C185.561 10.5552 185.99 10.0928 186.544 9.76136C187.1 9.42992 187.753 9.2642 188.502 9.2642C189.006 9.2642 189.475 9.34541 189.909 9.50781C190.347 9.6669 190.728 9.9072 191.053 10.2287C191.381 10.5502 191.636 10.9545 191.819 11.4418C192.001 11.9257 192.092 12.4924 192.092 13.142V13.7237H185.644V12.4112H190.098C190.098 12.1063 190.032 11.8362 189.9 11.6009C189.767 11.3655 189.583 11.1816 189.348 11.049C189.116 10.9131 188.846 10.8452 188.537 10.8452C188.216 10.8452 187.931 10.9197 187.682 11.0689C187.437 11.2147 187.245 11.4119 187.105 11.6605C186.966 11.9058 186.895 12.1792 186.892 12.4808V13.7287C186.892 14.1065 186.961 14.433 187.1 14.7081C187.243 14.9832 187.444 15.1953 187.702 15.3445C187.961 15.4936 188.267 15.5682 188.622 15.5682C188.857 15.5682 189.073 15.535 189.268 15.4688C189.464 15.4025 189.631 15.303 189.77 15.1705C189.909 15.0379 190.016 14.8755 190.088 14.6832L192.047 14.8125C191.948 15.2831 191.744 15.6941 191.436 16.0455C191.131 16.3935 190.736 16.6652 190.252 16.8608C189.772 17.053 189.217 17.1491 188.587 17.1491ZM193.474 17V9.36364H195.592V12.3267H196.189L198.267 9.36364H200.752L198.053 13.152L200.782 17H198.267L196.382 14.2905H195.592V17H193.474ZM204.813 17.1491C204.031 17.1491 203.358 16.9834 202.795 16.652C202.234 16.3172 201.804 15.8532 201.502 15.2599C201.204 14.6667 201.055 13.9839 201.055 13.2116C201.055 12.4295 201.205 11.7434 201.507 11.1534C201.812 10.5601 202.244 10.0978 202.805 9.76633C203.365 9.43158 204.031 9.2642 204.803 9.2642C205.469 9.2642 206.053 9.38518 206.553 9.62713C207.054 9.86908 207.45 10.2088 207.741 10.6463C208.033 11.0838 208.194 11.5975 208.224 12.1875H206.225C206.169 11.8063 206.019 11.4998 205.778 11.2678C205.539 11.0324 205.226 10.9148 204.838 10.9148C204.51 10.9148 204.223 11.0043 203.978 11.1832C203.736 11.3589 203.547 11.6158 203.411 11.9538C203.275 12.2919 203.207 12.7012 203.207 13.1818C203.207 13.669 203.273 14.0833 203.406 14.4247C203.542 14.7661 203.733 15.0263 203.978 15.2053C204.223 15.3842 204.51 15.4737 204.838 15.4737C205.08 15.4737 205.297 15.424 205.489 15.3246C205.685 15.2251 205.845 15.081 205.971 14.892C206.101 14.6998 206.185 14.4695 206.225 14.201H208.224C208.19 14.7843 208.031 15.2981 207.746 15.7422C207.465 16.183 207.075 16.5277 206.578 16.7763C206.081 17.0249 205.492 17.1491 204.813 17.1491ZM216.519 17.1392C215.816 17.1392 215.19 17.0099 214.639 16.7514C214.093 16.4929 213.658 16.1366 213.337 15.6825C213.015 15.2285 212.848 14.7081 212.835 14.1214H214.923C214.946 14.5159 215.112 14.8357 215.42 15.081C215.728 15.3262 216.094 15.4489 216.519 15.4489C216.857 15.4489 217.155 15.3743 217.414 15.2251C217.675 15.0727 217.879 14.8622 218.025 14.5938C218.174 14.322 218.249 14.0104 218.249 13.6591C218.249 13.3011 218.173 12.9863 218.02 12.7145C217.871 12.4427 217.664 12.2306 217.399 12.0781C217.133 11.9257 216.83 11.8478 216.489 11.8445C216.191 11.8445 215.901 11.9058 215.619 12.0284C215.34 12.151 215.123 12.3184 214.968 12.5305L213.053 12.1875L213.536 6.81818H219.76V8.57812H215.311L215.047 11.1286H215.107C215.286 10.8767 215.556 10.6679 215.917 10.5021C216.278 10.3364 216.683 10.2536 217.13 10.2536C217.743 10.2536 218.29 10.3977 218.771 10.6861C219.251 10.9744 219.631 11.3705 219.909 11.8743C220.188 12.3748 220.325 12.9515 220.322 13.6044C220.325 14.2905 220.166 14.9003 219.845 15.4339C219.526 15.9643 219.081 16.3819 218.507 16.6868C217.937 16.9884 217.274 17.1392 216.519 17.1392ZM222.753 17.1293C222.425 17.1293 222.143 17.0133 221.908 16.7812C221.676 16.5459 221.56 16.2642 221.56 15.9361C221.56 15.6113 221.676 15.3329 221.908 15.1009C222.143 14.8688 222.425 14.7528 222.753 14.7528C223.071 14.7528 223.35 14.8688 223.588 15.1009C223.827 15.3329 223.946 15.6113 223.946 15.9361C223.946 16.1548 223.89 16.3554 223.777 16.5376C223.668 16.7166 223.524 16.8608 223.345 16.9702C223.166 17.0762 222.968 17.1293 222.753 17.1293ZM229.247 17.2237C228.392 17.2204 227.656 17.0099 227.04 16.5923C226.427 16.1747 225.954 15.5698 225.623 14.7777C225.295 13.9856 225.132 13.0327 225.136 11.919C225.136 10.8087 225.3 9.86245 225.628 9.08026C225.959 8.29806 226.432 7.70312 227.045 7.29545C227.661 6.88447 228.395 6.67898 229.247 6.67898C230.099 6.67898 230.831 6.88447 231.445 7.29545C232.061 7.70644 232.535 8.30303 232.866 9.08523C233.198 9.86411 233.362 10.8087 233.359 11.919C233.359 13.036 233.193 13.9905 232.862 14.7827C232.533 15.5748 232.063 16.1797 231.45 16.5973C230.836 17.0149 230.102 17.2237 229.247 17.2237ZM229.247 15.4389C229.83 15.4389 230.296 15.1456 230.644 14.5589C230.992 13.9723 231.165 13.0923 231.161 11.919C231.161 11.1468 231.082 10.5038 230.923 9.99006C230.767 9.47633 230.545 9.0902 230.256 8.83168C229.971 8.57315 229.635 8.44389 229.247 8.44389C228.667 8.44389 228.203 8.7339 227.855 9.31392C227.507 9.89394 227.331 10.7623 227.328 11.919C227.328 12.7012 227.406 13.3542 227.562 13.8778C227.721 14.3982 227.945 14.7893 228.233 15.0511C228.521 15.3097 228.859 15.4389 229.247 15.4389Z" fill="white"/>
<path id="Star 16" d="M37.5 4L39.1839 9.18237H44.6329L40.2245 12.3853L41.9084 17.5676L37.5 14.3647L33.0916 17.5676L34.7755 12.3853L30.3671 9.18237H35.8161L37.5 4Z" fill="#FFD500"/>
<rect id="Rectangle 154" x="47" y="4" width="1" height="15" fill="#6B6B6B"/>
<path id="655 &#208;&#190;&#209;&#130;&#208;&#183;&#209;&#139;&#208;&#178;&#208;&#190;&#208;&#178;" d="M57.733 17.1392C57.2093 17.1359 56.7038 17.0481 56.2166 16.8757C55.7327 16.7034 55.2985 16.4233 54.9141 16.0355C54.5296 15.6477 54.2247 15.134 53.9993 14.4943C53.7772 13.8546 53.6662 13.0691 53.6662 12.1378C53.6695 11.2827 53.7673 10.5187 53.9595 9.84588C54.1551 9.16974 54.4335 8.59635 54.7947 8.12571C55.1593 7.65507 55.5952 7.29711 56.1023 7.05185C56.6094 6.80327 57.1778 6.67898 57.8075 6.67898C58.487 6.67898 59.0869 6.81155 59.6072 7.0767C60.1276 7.33854 60.5452 7.69484 60.8601 8.1456C61.1783 8.59635 61.3705 9.1018 61.4368 9.66193H59.3139C59.2311 9.30729 59.0571 9.02888 58.7919 8.8267C58.5268 8.62453 58.1986 8.52344 57.8075 8.52344C57.1446 8.52344 56.6409 8.81179 56.2962 9.38849C55.9548 9.9652 55.7808 10.7491 55.7741 11.7401H55.8438C55.9962 11.4384 56.2017 11.1816 56.4602 10.9695C56.7221 10.754 57.0187 10.59 57.3501 10.4773C57.6849 10.3613 58.0379 10.3033 58.4091 10.3033C59.0123 10.3033 59.5492 10.4458 60.0199 10.7308C60.4905 11.0125 60.8617 11.4003 61.1335 11.8942C61.4053 12.388 61.5412 12.9531 61.5412 13.5895C61.5412 14.2789 61.3804 14.892 61.0589 15.429C60.7408 15.9659 60.295 16.3868 59.7216 16.6918C59.1515 16.9934 58.4886 17.1425 57.733 17.1392ZM57.723 15.4489C58.0545 15.4489 58.3511 15.3693 58.6129 15.2102C58.8748 15.0511 59.0803 14.8357 59.2294 14.5639C59.3786 14.2921 59.4531 13.9872 59.4531 13.6491C59.4531 13.3111 59.3786 13.0078 59.2294 12.7393C59.0836 12.4709 58.8814 12.2571 58.6229 12.098C58.3643 11.9389 58.0694 11.8594 57.7379 11.8594C57.4893 11.8594 57.259 11.9058 57.0469 11.9986C56.8381 12.0914 56.6541 12.2206 56.495 12.3864C56.3393 12.5521 56.2166 12.7443 56.1271 12.9631C56.0376 13.1785 55.9929 13.4089 55.9929 13.6541C55.9929 13.9822 56.0675 14.2822 56.2166 14.554C56.3691 14.8258 56.5746 15.0429 56.8331 15.2053C57.0949 15.3677 57.3916 15.4489 57.723 15.4489ZM66.7862 17.1392C66.0836 17.1392 65.4571 17.0099 64.907 16.7514C64.3601 16.4929 63.9259 16.1366 63.6044 15.6825C63.2829 15.2285 63.1155 14.7081 63.1023 14.1214H65.1903C65.2135 14.5159 65.3793 14.8357 65.6875 15.081C65.9957 15.3262 66.362 15.4489 66.7862 15.4489C67.1243 15.4489 67.4226 15.3743 67.6811 15.2251C67.9429 15.0727 68.1468 14.8622 68.2926 14.5938C68.4418 14.322 68.5163 14.0104 68.5163 13.6591C68.5163 13.3011 68.4401 12.9863 68.2876 12.7145C68.1385 12.4427 67.9313 12.2306 67.6662 12.0781C67.401 11.9257 67.0978 11.8478 66.7564 11.8445C66.4581 11.8445 66.1681 11.9058 65.8864 12.0284C65.608 12.151 65.3909 12.3184 65.2351 12.5305L63.321 12.1875L63.8033 6.81818H70.0277V8.57812H65.5781L65.3146 11.1286H65.3743C65.5533 10.8767 65.8234 10.6679 66.1847 10.5021C66.5459 10.3364 66.9503 10.2536 67.3977 10.2536C68.0109 10.2536 68.5578 10.3977 69.0384 10.6861C69.5189 10.9744 69.8984 11.3705 70.1768 11.8743C70.4553 12.3748 70.5928 12.9515 70.5895 13.6044C70.5928 14.2905 70.4337 14.9003 70.1122 15.4339C69.794 15.9643 69.3482 16.3819 68.7749 16.6868C68.2048 16.9884 67.5419 17.1392 66.7862 17.1392ZM75.8097 17.1392C75.107 17.1392 74.4806 17.0099 73.9304 16.7514C73.3835 16.4929 72.9493 16.1366 72.6278 15.6825C72.3063 15.2285 72.139 14.7081 72.1257 14.1214H74.2138C74.237 14.5159 74.4027 14.8357 74.7109 15.081C75.0192 15.3262 75.3854 15.4489 75.8097 15.4489C76.1477 15.4489 76.446 15.3743 76.7045 15.2251C76.9664 15.0727 77.1702 14.8622 77.3161 14.5938C77.4652 14.322 77.5398 14.0104 77.5398 13.6591C77.5398 13.3011 77.4635 12.9863 77.3111 12.7145C77.1619 12.4427 76.9548 12.2306 76.6896 12.0781C76.4245 11.9257 76.1212 11.8478 75.7798 11.8445C75.4815 11.8445 75.1915 11.9058 74.9098 12.0284C74.6314 12.151 74.4143 12.3184 74.2585 12.5305L72.3445 12.1875L72.8267 6.81818H79.0511V8.57812H74.6016L74.3381 11.1286H74.3977C74.5767 10.8767 74.8468 10.6679 75.2081 10.5021C75.5694 10.3364 75.9737 10.2536 76.4212 10.2536C77.0343 10.2536 77.5812 10.3977 78.0618 10.6861C78.5424 10.9744 78.9219 11.3705 79.2003 11.8743C79.4787 12.3748 79.6162 12.9515 79.6129 13.6044C79.6162 14.2905 79.4571 14.9003 79.1357 15.4339C78.8175 15.9643 78.3717 16.3819 77.7983 16.6868C77.2282 16.9884 76.5653 17.1392 75.8097 17.1392ZM87.8248 17.1491C87.0525 17.1491 86.3846 16.9851 85.8212 16.657C85.2611 16.3255 84.8285 15.8648 84.5236 15.2749C84.2187 14.6816 84.0662 13.9938 84.0662 13.2116C84.0662 12.4228 84.2187 11.7334 84.5236 11.1435C84.8285 10.5502 85.2611 10.0895 85.8212 9.76136C86.3846 9.42992 87.0525 9.2642 87.8248 9.2642C88.597 9.2642 89.2632 9.42992 89.8233 9.76136C90.3868 10.0895 90.821 10.5502 91.1259 11.1435C91.4308 11.7334 91.5833 12.4228 91.5833 13.2116C91.5833 13.9938 91.4308 14.6816 91.1259 15.2749C90.821 15.8648 90.3868 16.3255 89.8233 16.657C89.2632 16.9851 88.597 17.1491 87.8248 17.1491ZM87.8347 15.5085C88.186 15.5085 88.4793 15.4091 88.7147 15.2102C88.95 15.008 89.1273 14.733 89.2466 14.3849C89.3693 14.0369 89.4306 13.6409 89.4306 13.1967C89.4306 12.7526 89.3693 12.3565 89.2466 12.0085C89.1273 11.6605 88.95 11.3854 88.7147 11.1832C88.4793 10.9811 88.186 10.88 87.8347 10.88C87.4801 10.88 87.1818 10.9811 86.9398 11.1832C86.7012 11.3854 86.5205 11.6605 86.3979 12.0085C86.2786 12.3565 86.2189 12.7526 86.2189 13.1967C86.2189 13.6409 86.2786 14.0369 86.3979 14.3849C86.5205 14.733 86.7012 15.008 86.9398 15.2102C87.1818 15.4091 87.4801 15.5085 87.8347 15.5085ZM92.2209 11.0291V9.36364H99.1413V11.0291H96.6804V17H94.6619V11.0291H92.2209ZM100.032 14.8374H102.086C102.096 15.0893 102.208 15.2881 102.424 15.4339C102.639 15.5798 102.918 15.6527 103.259 15.6527C103.604 15.6527 103.894 15.5732 104.129 15.4141C104.364 15.2517 104.482 15.0196 104.482 14.718C104.482 14.5324 104.436 14.3717 104.343 14.2358C104.25 14.0966 104.121 13.9872 103.955 13.9077C103.789 13.8281 103.597 13.7884 103.378 13.7884H102.28V12.4013H103.378C103.706 12.4013 103.958 12.325 104.134 12.1726C104.313 12.0201 104.403 11.8295 104.403 11.6009C104.403 11.3423 104.31 11.1352 104.124 10.9794C103.942 10.8203 103.695 10.7408 103.383 10.7408C103.068 10.7408 102.807 10.812 102.598 10.9545C102.392 11.0937 102.286 11.276 102.28 11.5014H100.236C100.243 11.044 100.381 10.648 100.649 10.3132C100.921 9.97846 101.285 9.71993 101.743 9.53764C102.203 9.35535 102.719 9.2642 103.289 9.2642C103.912 9.2642 104.449 9.35204 104.9 9.5277C105.354 9.70005 105.702 9.94697 105.944 10.2685C106.189 10.59 106.312 10.9728 106.312 11.4169C106.312 11.8213 106.179 12.1593 105.914 12.4311C105.649 12.7029 105.278 12.8968 104.8 13.0128V13.0923C105.115 13.1122 105.4 13.1967 105.655 13.3459C105.911 13.495 106.114 13.7005 106.267 13.9624C106.419 14.2209 106.496 14.5275 106.496 14.8821C106.496 15.3561 106.356 15.7621 106.078 16.1001C105.803 16.4382 105.422 16.6984 104.934 16.8807C104.451 17.0597 103.895 17.1491 103.269 17.1491C102.659 17.1491 102.112 17.0613 101.628 16.8857C101.148 16.7067 100.765 16.4448 100.48 16.1001C100.198 15.7554 100.049 15.3345 100.032 14.8374ZM109.122 11.7102H111.404C112.415 11.7102 113.203 11.9522 113.77 12.4361C114.337 12.9167 114.62 13.5597 114.62 14.3651C114.62 14.8887 114.493 15.3494 114.238 15.7472C113.982 16.1416 113.614 16.4498 113.134 16.6719C112.653 16.8906 112.077 17 111.404 17H107.794V9.36364H109.818V15.3345H111.404C111.758 15.3345 112.05 15.245 112.279 15.0661C112.507 14.8871 112.623 14.6584 112.627 14.38C112.623 14.085 112.507 13.8447 112.279 13.6591C112.05 13.4702 111.758 13.3757 111.404 13.3757H109.122V11.7102ZM115.441 17V9.36364H117.559V17H115.441ZM119.251 17V9.36364H122.508C123.449 9.36364 124.193 9.54261 124.74 9.90057C125.287 10.2585 125.56 10.7673 125.56 11.4268C125.56 11.8411 125.406 12.1858 125.098 12.4609C124.79 12.736 124.362 12.9216 123.815 13.0178C124.273 13.0509 124.662 13.1553 124.984 13.331C125.308 13.5033 125.555 13.727 125.724 14.0021C125.897 14.2772 125.983 14.5821 125.983 14.9169C125.983 15.3511 125.867 15.724 125.635 16.0355C125.406 16.3471 125.07 16.5857 124.626 16.7514C124.185 16.9171 123.646 17 123.01 17H119.251ZM121.225 15.4141H123.01C123.305 15.4141 123.535 15.3445 123.701 15.2053C123.87 15.0627 123.955 14.8688 123.955 14.6236C123.955 14.3518 123.87 14.138 123.701 13.9822C123.535 13.8265 123.305 13.7486 123.01 13.7486H121.225V15.4141ZM121.225 12.5057H122.553C122.765 12.5057 122.945 12.4759 123.094 12.4162C123.247 12.3532 123.363 12.2637 123.442 12.1477C123.525 12.0317 123.567 11.8942 123.567 11.7351C123.567 11.4998 123.472 11.3158 123.283 11.1832C123.094 11.0507 122.836 10.9844 122.508 10.9844H121.225V12.5057ZM130.768 17.1491C129.996 17.1491 129.328 16.9851 128.765 16.657C128.204 16.3255 127.772 15.8648 127.467 15.2749C127.162 14.6816 127.01 13.9938 127.01 13.2116C127.01 12.4228 127.162 11.7334 127.467 11.1435C127.772 10.5502 128.204 10.0895 128.765 9.76136C129.328 9.42992 129.996 9.2642 130.768 9.2642C131.54 9.2642 132.207 9.42992 132.767 9.76136C133.33 10.0895 133.764 10.5502 134.069 11.1435C134.374 11.7334 134.527 12.4228 134.527 13.2116C134.527 13.9938 134.374 14.6816 134.069 15.2749C133.764 15.8648 133.33 16.3255 132.767 16.657C132.207 16.9851 131.54 17.1491 130.768 17.1491ZM130.778 15.5085C131.129 15.5085 131.423 15.4091 131.658 15.2102C131.893 15.008 132.071 14.733 132.19 14.3849C132.313 14.0369 132.374 13.6409 132.374 13.1967C132.374 12.7526 132.313 12.3565 132.19 12.0085C132.071 11.6605 131.893 11.3854 131.658 11.1832C131.423 10.9811 131.129 10.88 130.778 10.88C130.423 10.88 130.125 10.9811 129.883 11.1832C129.645 11.3854 129.464 11.6605 129.341 12.0085C129.222 12.3565 129.162 12.7526 129.162 13.1967C129.162 13.6409 129.222 14.0369 129.341 14.3849C129.464 14.733 129.645 15.008 129.883 15.2102C130.125 15.4091 130.423 15.5085 130.778 15.5085ZM135.904 17V9.36364H139.16C140.101 9.36364 140.846 9.54261 141.392 9.90057C141.939 10.2585 142.213 10.7673 142.213 11.4268C142.213 11.8411 142.059 12.1858 141.75 12.4609C141.442 12.736 141.015 12.9216 140.468 13.0178C140.925 13.0509 141.315 13.1553 141.636 13.331C141.961 13.5033 142.208 13.727 142.377 14.0021C142.549 14.2772 142.635 14.5821 142.635 14.9169C142.635 15.3511 142.519 15.724 142.287 16.0355C142.059 16.3471 141.722 16.5857 141.278 16.7514C140.837 16.9171 140.299 17 139.662 17H135.904ZM137.877 15.4141H139.662C139.957 15.4141 140.188 15.3445 140.353 15.2053C140.522 15.0627 140.607 14.8688 140.607 14.6236C140.607 14.3518 140.522 14.138 140.353 13.9822C140.188 13.8265 139.957 13.7486 139.662 13.7486H137.877V15.4141ZM137.877 12.5057H139.205C139.417 12.5057 139.598 12.4759 139.747 12.4162C139.899 12.3532 140.015 12.2637 140.095 12.1477C140.178 12.0317 140.219 11.8942 140.219 11.7351C140.219 11.4998 140.125 11.3158 139.936 11.1832C139.747 11.0507 139.488 10.9844 139.16 10.9844H137.877V12.5057Z" fill="#848484"/>
</g>
</svg>
